<svg xmlns="http://www.w3.org/2000/svg" width="880" height="144" viewBox="0 0 880 144">
  <path fill="#00dcdc" d="M0,0h112v16h-112zM128,0h32v16h-32zM208,0h32v16h-32zM256,0h112v16h-112zM384,0h112v16h-112zM640,0h112v16h-112zM768,0h112v16h-112zM0,16h32v16h-32zM80,16h32v16h-32zM128,16h32v16h-32zM208,16h32v16h-32zM288,16h48v16h-48zM448,16h32v16h-32zM640,16h32v16h-32zM720,16h32v16h-32zM800,16h48v16h-48zM0,32h32v16h-32zM80,32h32v16h-32zM128,32h32v16h-32zM208,32h32v16h-32zM288,32h48v16h-48zM432,32h32v16h-32zM640,32h32v16h-32zM720,32h32v16h-32zM800,32h48v16h-48zM0,48h32v16h-32zM80,48h32v16h-32zM128,48h32v16h-32zM208,48h32v16h-32zM288,48h48v16h-48zM416,48h32v16h-32zM640,48h112v16h-112zM800,48h48v16h-48zM0,64h32v16h-32zM48,64h16v16h-16zM80,64h32v16h-32zM128,64h32v16h-32zM208,64h32v16h-32zM288,64h48v16h-48zM400,64h32v16h-32zM640,64h32v16h-32zM720,64h32v16h-32zM800,64h48v16h-48zM0,80h32v16h-32zM64,80h32v16h-32zM128,80h32v16h-32zM208,80h32v16h-32zM288,80h48v16h-48zM384,80h32v16h-32zM640,80h32v16h-32zM720,80h32v16h-32zM800,80h48v16h-48zM0,96h80v16h-80zM96,96h16v16h-16zM128,96h112v16h-112zM256,96h112v16h-112zM384,96h112v16h-112zM544,96h48v16h-48zM640,96h32v16h-32zM720,96h32v16h-32zM768,96h112v16h-112z"/>
</svg>