<svg xmlns="http://www.w3.org/2000/svg" width="880" height="144" viewBox="0 0 880 144">
  <rect x="0" y="0" width="16" height="16" fill="#00c800"/>
  <rect x="16" y="0" width="16" height="16" fill="#00c800"/>
  <rect x="32" y="0" width="16" height="16" fill="#00c800"/>
  <rect x="48" y="0" width="16" height="16" fill="#00c800"/>
  <rect x="64" y="0" width="16" height="16" fill="#00c800"/>
  <rect x="80" y="0" width="16" height="16" fill="#00c800"/>
  <rect x="96" y="0" width="16" height="16" fill="#00c800"/>
  <rect x="128" y="0" width="16" height="16" fill="#00c800"/>
  <rect x="144" y="0" width="16" height="16" fill="#00c800"/>
  <rect x="208" y="0" width="16" height="16" fill="#00c800"/>
  <rect x="224" y="0" width="16" height="16" fill="#00c800"/>
  <rect x="256" y="0" width="16" height="16" fill="#00c800"/>
  <rect x="272" y="0" width="16" height="16" fill="#00c800"/>
  <rect x="288" y="0" width="16" height="16" fill="#00c800"/>
  <rect x="304" y="0" width="16" height="16" fill="#00c800"/>
  <rect x="320" y="0" width="16" height="16" fill="#00c800"/>
  <rect x="336" y="0" width="16" height="16" fill="#00c800"/>
  <rect x="352" y="0" width="16" height="16" fill="#00c800"/>
  <rect x="384" y="0" width="16" height="16" fill="#00c800"/>
  <rect x="400" y="0" width="16" height="16" fill="#00c800"/>
  <rect x="416" y="0" width="16" height="16" fill="#00c800"/>
  <rect x="432" y="0" width="16" height="16" fill="#00c800"/>
  <rect x="448" y="0" width="16" height="16" fill="#00c800"/>
  <rect x="464" y="0" width="16" height="16" fill="#00c800"/>
  <rect x="480" y="0" width="16" height="16" fill="#00c800"/>
  <rect x="640" y="0" width="16" height="16" fill="#00c800"/>
  <rect x="656" y="0" width="16" height="16" fill="#00c800"/>
  <rect x="672" y="0" width="16" height="16" fill="#00c800"/>
  <rect x="688" y="0" width="16" height="16" fill="#00c800"/>
  <rect x="704" y="0" width="16" height="16" fill="#00c800"/>
  <rect x="720" y="0" width="16" height="16" fill="#00c800"/>
  <rect x="736" y="0" width="16" height="16" fill="#00c800"/>
  <rect x="768" y="0" width="16" height="16" fill="#00c800"/>
  <rect x="784" y="0" width="16" height="16" fill="#00c800"/>
  <rect x="800" y="0" width="16" height="16" fill="#00c800"/>
  <rect x="816" y="0" width="16" height="16" fill="#00c800"/>
  <rect x="832" y="0" width="16" height="16" fill="#00c800"/>
  <rect x="848" y="0" width="16" height="16" fill="#00c800"/>
  <rect x="864" y="0" width="16" height="16" fill="#00c800"/>
  <rect x="0" y="16" width="16" height="16" fill="#00c800"/>
  <rect x="16" y="16" width="16" height="16" fill="#00c800"/>
  <rect x="80" y="16" width="16" height="16" fill="#00c800"/>
  <rect x="96" y="16" width="16" height="16" fill="#00c800"/>
  <rect x="128" y="16" width="16" height="16" fill="#00c800"/>
  <rect x="144" y="16" width="16" height="16" fill="#00c800"/>
  <rect x="208" y="16" width="16" height="16" fill="#00c800"/>
  <rect x="224" y="16" width="16" height="16" fill="#00c800"/>
  <rect x="288" y="16" width="16" height="16" fill="#00c800"/>
  <rect x="304" y="16" width="16" height="16" fill="#00c800"/>
  <rect x="320" y="16" width="16" height="16" fill="#00c800"/>
  <rect x="448" y="16" width="16" height="16" fill="#00c800"/>
  <rect x="464" y="16" width="16" height="16" fill="#00c800"/>
  <rect x="640" y="16" width="16" height="16" fill="#00c800"/>
  <rect x="656" y="16" width="16" height="16" fill="#00c800"/>
  <rect x="720" y="16" width="16" height="16" fill="#00c800"/>
  <rect x="736" y="16" width="16" height="16" fill="#00c800"/>
  <rect x="800" y="16" width="16" height="16" fill="#00c800"/>
  <rect x="816" y="16" width="16" height="16" fill="#00c800"/>
  <rect x="832" y="16" width="16" height="16" fill="#00c800"/>
  <rect x="0" y="32" width="16" height="16" fill="#00c800"/>
  <rect x="16" y="32" width="16" height="16" fill="#00c800"/>
  <rect x="80" y="32" width="16" height="16" fill="#00c800"/>
  <rect x="96" y="32" width="16" height="16" fill="#00c800"/>
  <rect x="128" y="32" width="16" height="16" fill="#00c800"/>
  <rect x="144" y="32" width="16" height="16" fill="#00c800"/>
  <rect x="208" y="32" width="16" height="16" fill="#00c800"/>
  <rect x="224" y="32" width="16" height="16" fill="#00c800"/>
  <rect x="288" y="32" width="16" height="16" fill="#00c800"/>
  <rect x="304" y="32" width="16" height="16" fill="#00c800"/>
  <rect x="320" y="32" width="16" height="16" fill="#00c800"/>
  <rect x="432" y="32" width="16" height="16" fill="#00c800"/>
  <rect x="448" y="32" width="16" height="16" fill="#00c800"/>
  <rect x="640" y="32" width="16" height="16" fill="#00c800"/>
  <rect x="656" y="32" width="16" height="16" fill="#00c800"/>
  <rect x="720" y="32" width="16" height="16" fill="#00c800"/>
  <rect x="736" y="32" width="16" height="16" fill="#00c800"/>
  <rect x="800" y="32" width="16" height="16" fill="#00c800"/>
  <rect x="816" y="32" width="16" height="16" fill="#00c800"/>
  <rect x="832" y="32" width="16" height="16" fill="#00c800"/>
  <rect x="0" y="48" width="16" height="16" fill="#00c800"/>
  <rect x="16" y="48" width="16" height="16" fill="#00c800"/>
  <rect x="80" y="48" width="16" height="16" fill="#00c800"/>
  <rect x="96" y="48" width="16" height="16" fill="#00c800"/>
  <rect x="128" y="48" width="16" height="16" fill="#00c800"/>
  <rect x="144" y="48" width="16" height="16" fill="#00c800"/>
  <rect x="208" y="48" width="16" height="16" fill="#00c800"/>
  <rect x="224" y="48" width="16" height="16" fill="#00c800"/>
  <rect x="288" y="48" width="16" height="16" fill="#00c800"/>
  <rect x="304" y="48" width="16" height="16" fill="#00c800"/>
  <rect x="320" y="48" width="16" height="16" fill="#00c800"/>
  <rect x="416" y="48" width="16" height="16" fill="#00c800"/>
  <rect x="432" y="48" width="16" height="16" fill="#00c800"/>
  <rect x="640" y="48" width="16" height="16" fill="#00c800"/>
  <rect x="656" y="48" width="16" height="16" fill="#00c800"/>
  <rect x="672" y="48" width="16" height="16" fill="#00c800"/>
  <rect x="688" y="48" width="16" height="16" fill="#00c800"/>
  <rect x="704" y="48" width="16" height="16" fill="#00c800"/>
  <rect x="720" y="48" width="16" height="16" fill="#00c800"/>
  <rect x="736" y="48" width="16" height="16" fill="#00c800"/>
  <rect x="800" y="48" width="16" height="16" fill="#00c800"/>
  <rect x="816" y="48" width="16" height="16" fill="#00c800"/>
  <rect x="832" y="48" width="16" height="16" fill="#00c800"/>
  <rect x="0" y="64" width="16" height="16" fill="#00c800"/>
  <rect x="16" y="64" width="16" height="16" fill="#00c800"/>
  <rect x="48" y="64" width="16" height="16" fill="#00c800"/>
  <rect x="80" y="64" width="16" height="16" fill="#00c800"/>
  <rect x="96" y="64" width="16" height="16" fill="#00c800"/>
  <rect x="128" y="64" width="16" height="16" fill="#00c800"/>
  <rect x="144" y="64" width="16" height="16" fill="#00c800"/>
  <rect x="208" y="64" width="16" height="16" fill="#00c800"/>
  <rect x="224" y="64" width="16" height="16" fill="#00c800"/>
  <rect x="288" y="64" width="16" height="16" fill="#00c800"/>
  <rect x="304" y="64" width="16" height="16" fill="#00c800"/>
  <rect x="320" y="64" width="16" height="16" fill="#00c800"/>
  <rect x="400" y="64" width="16" height="16" fill="#00c800"/>
  <rect x="416" y="64" width="16" height="16" fill="#00c800"/>
  <rect x="640" y="64" width="16" height="16" fill="#00c800"/>
  <rect x="656" y="64" width="16" height="16" fill="#00c800"/>
  <rect x="720" y="64" width="16" height="16" fill="#00c800"/>
  <rect x="736" y="64" width="16" height="16" fill="#00c800"/>
  <rect x="800" y="64" width="16" height="16" fill="#00c800"/>
  <rect x="816" y="64" width="16" height="16" fill="#00c800"/>
  <rect x="832" y="64" width="16" height="16" fill="#00c800"/>
  <rect x="0" y="80" width="16" height="16" fill="#00c800"/>
  <rect x="16" y="80" width="16" height="16" fill="#00c800"/>
  <rect x="64" y="80" width="16" height="16" fill="#00c800"/>
  <rect x="80" y="80" width="16" height="16" fill="#00c800"/>
  <rect x="128" y="80" width="16" height="16" fill="#00c800"/>
  <rect x="144" y="80" width="16" height="16" fill="#00c800"/>
  <rect x="208" y="80" width="16" height="16" fill="#00c800"/>
  <rect x="224" y="80" width="16" height="16" fill="#00c800"/>
  <rect x="288" y="80" width="16" height="16" fill="#00c800"/>
  <rect x="304" y="80" width="16" height="16" fill="#00c800"/>
  <rect x="320" y="80" width="16" height="16" fill="#00c800"/>
  <rect x="384" y="80" width="16" height="16" fill="#00c800"/>
  <rect x="400" y="80" width="16" height="16" fill="#00c800"/>
  <rect x="640" y="80" width="16" height="16" fill="#00c800"/>
  <rect x="656" y="80" width="16" height="16" fill="#00c800"/>
  <rect x="720" y="80" width="16" height="16" fill="#00c800"/>
  <rect x="736" y="80" width="16" height="16" fill="#00c800"/>
  <rect x="800" y="80" width="16" height="16" fill="#00c800"/>
  <rect x="816" y="80" width="16" height="16" fill="#00c800"/>
  <rect x="832" y="80" width="16" height="16" fill="#00c800"/>
  <rect x="0" y="96" width="16" height="16" fill="#00c800"/>
  <rect x="16" y="96" width="16" height="16" fill="#00c800"/>
  <rect x="32" y="96" width="16" height="16" fill="#00c800"/>
  <rect x="48" y="96" width="16" height="16" fill="#00c800"/>
  <rect x="64" y="96" width="16" height="16" fill="#00c800"/>
  <rect x="96" y="96" width="16" height="16" fill="#00c800"/>
  <rect x="128" y="96" width="16" height="16" fill="#00c800"/>
  <rect x="144" y="96" width="16" height="16" fill="#00c800"/>
  <rect x="160" y="96" width="16" height="16" fill="#00c800"/>
  <rect x="176" y="96" width="16" height="16" fill="#00c800"/>
  <rect x="192" y="96" width="16" height="16" fill="#00c800"/>
  <rect x="208" y="96" width="16" height="16" fill="#00c800"/>
  <rect x="224" y="96" width="16" height="16" fill="#00c800"/>
  <rect x="256" y="96" width="16" height="16" fill="#00c800"/>
  <rect x="272" y="96" width="16" height="16" fill="#00c800"/>
  <rect x="288" y="96" width="16" height="16" fill="#00c800"/>
  <rect x="304" y="96" width="16" height="16" fill="#00c800"/>
  <rect x="320" y="96" width="16" height="16" fill="#00c800"/>
  <rect x="336" y="96" width="16" height="16" fill="#00c800"/>
  <rect x="352" y="96" width="16" height="16" fill="#00c800"/>
  <rect x="384" y="96" width="16" height="16" fill="#00c800"/>
  <rect x="400" y="96" width="16" height="16" fill="#00c800"/>
  <rect x="416" y="96" width="16" height="16" fill="#00c800"/>
  <rect x="432" y="96" width="16" height="16" fill="#00c800"/>
  <rect x="448" y="96" width="16" height="16" fill="#00c800"/>
  <rect x="464" y="96" width="16" height="16" fill="#00c800"/>
  <rect x="480" y="96" width="16" height="16" fill="#00c800"/>
  <rect x="544" y="96" width="16" height="16" fill="#00c800"/>
  <rect x="560" y="96" width="16" height="16" fill="#00c800"/>
  <rect x="576" y="96" width="16" height="16" fill="#00c800"/>
  <rect x="640" y="96" width="16" height="16" fill="#00c800"/>
  <rect x="656" y="96" width="16" height="16" fill="#00c800"/>
  <rect x="720" y="96" width="16" height="16" fill="#00c800"/>
  <rect x="736" y="96" width="16" height="16" fill="#00c800"/>
  <rect x="768" y="96" width="16" height="16" fill="#00c800"/>
  <rect x="784" y="96" width="16" height="16" fill="#00c800"/>
  <rect x="800" y="96" width="16" height="16" fill="#00c800"/>
  <rect x="816" y="96" width="16" height="16" fill="#00c800"/>
  <rect x="832" y="96" width="16" height="16" fill="#00c800"/>
  <rect x="848" y="96" width="16" height="16" fill="#00c800"/>
  <rect x="864" y="96" width="16" height="16" fill="#00c800"/>
</svg>