<svg xmlns="http://www.w3.org/2000/svg" width="1648" height="144" viewBox="0 0 1648 144">
  <rect x="128" y="0" width="16" height="16" fill="#00dcdc"/>
  <rect x="144" y="0" width="16" height="16" fill="#00dcdc"/>
  <rect x="464" y="0" width="16" height="16" fill="#00dcdc"/>
  <rect x="480" y="0" width="16" height="16" fill="#00dcdc"/>
  <rect x="672" y="0" width="16" height="16" fill="#00dcdc"/>
  <rect x="688" y="0" width="16" height="16" fill="#00dcdc"/>
  <rect x="704" y="0" width="16" height="16" fill="#00dcdc"/>
  <rect x="720" y="0" width="16" height="16" fill="#00dcdc"/>
  <rect x="736" y="0" width="16" height="16" fill="#00dcdc"/>
  <rect x="896" y="0" width="16" height="16" fill="#00dcdc"/>
  <rect x="912" y="0" width="16" height="16" fill="#00dcdc"/>
  <rect x="1056" y="0" width="16" height="16" fill="#00dcdc"/>
  <rect x="1072" y="0" width="16" height="16" fill="#00dcdc"/>
  <rect x="1088" y="0" width="16" height="16" fill="#00dcdc"/>
  <rect x="1200" y="0" width="16" height="16" fill="#00dcdc"/>
  <rect x="1216" y="0" width="16" height="16" fill="#00dcdc"/>
  <rect x="1232" y="0" width="16" height="16" fill="#00dcdc"/>
  <rect x="1280" y="0" width="16" height="16" fill="#00dcdc"/>
  <rect x="1296" y="0" width="16" height="16" fill="#00dcdc"/>
  <rect x="1424" y="0" width="16" height="16" fill="#00dcdc"/>
  <rect x="1440" y="0" width="16" height="16" fill="#00dcdc"/>
  <rect x="1456" y="0" width="16" height="16" fill="#00dcdc"/>
  <rect x="1472" y="0" width="16" height="16" fill="#00dcdc"/>
  <rect x="128" y="16" width="16" height="16" fill="#00dcdc"/>
  <rect x="144" y="16" width="16" height="16" fill="#00dcdc"/>
  <rect x="464" y="16" width="16" height="16" fill="#00dcdc"/>
  <rect x="480" y="16" width="16" height="16" fill="#00dcdc"/>
  <rect x="672" y="16" width="16" height="16" fill="#00dcdc"/>
  <rect x="688" y="16" width="16" height="16" fill="#00dcdc"/>
  <rect x="896" y="16" width="16" height="16" fill="#00dcdc"/>
  <rect x="912" y="16" width="16" height="16" fill="#00dcdc"/>
  <rect x="1280" y="16" width="16" height="16" fill="#00dcdc"/>
  <rect x="1296" y="16" width="16" height="16" fill="#00dcdc"/>
  <rect x="1440" y="16" width="16" height="16" fill="#00dcdc"/>
  <rect x="1456" y="16" width="16" height="16" fill="#00dcdc"/>
  <rect x="1472" y="16" width="16" height="16" fill="#00dcdc"/>
  <rect x="0" y="32" width="16" height="16" fill="#00dcdc"/>
  <rect x="16" y="32" width="16" height="16" fill="#00dcdc"/>
  <rect x="32" y="32" width="16" height="16" fill="#00dcdc"/>
  <rect x="48" y="32" width="16" height="16" fill="#00dcdc"/>
  <rect x="64" y="32" width="16" height="16" fill="#00dcdc"/>
  <rect x="80" y="32" width="16" height="16" fill="#00dcdc"/>
  <rect x="96" y="32" width="16" height="16" fill="#00dcdc"/>
  <rect x="128" y="32" width="16" height="16" fill="#00dcdc"/>
  <rect x="144" y="32" width="16" height="16" fill="#00dcdc"/>
  <rect x="160" y="32" width="16" height="16" fill="#00dcdc"/>
  <rect x="176" y="32" width="16" height="16" fill="#00dcdc"/>
  <rect x="192" y="32" width="16" height="16" fill="#00dcdc"/>
  <rect x="208" y="32" width="16" height="16" fill="#00dcdc"/>
  <rect x="256" y="32" width="16" height="16" fill="#00dcdc"/>
  <rect x="272" y="32" width="16" height="16" fill="#00dcdc"/>
  <rect x="288" y="32" width="16" height="16" fill="#00dcdc"/>
  <rect x="304" y="32" width="16" height="16" fill="#00dcdc"/>
  <rect x="320" y="32" width="16" height="16" fill="#00dcdc"/>
  <rect x="336" y="32" width="16" height="16" fill="#00dcdc"/>
  <rect x="352" y="32" width="16" height="16" fill="#00dcdc"/>
  <rect x="384" y="32" width="16" height="16" fill="#00dcdc"/>
  <rect x="400" y="32" width="16" height="16" fill="#00dcdc"/>
  <rect x="416" y="32" width="16" height="16" fill="#00dcdc"/>
  <rect x="432" y="32" width="16" height="16" fill="#00dcdc"/>
  <rect x="448" y="32" width="16" height="16" fill="#00dcdc"/>
  <rect x="464" y="32" width="16" height="16" fill="#00dcdc"/>
  <rect x="480" y="32" width="16" height="16" fill="#00dcdc"/>
  <rect x="512" y="32" width="16" height="16" fill="#00dcdc"/>
  <rect x="528" y="32" width="16" height="16" fill="#00dcdc"/>
  <rect x="544" y="32" width="16" height="16" fill="#00dcdc"/>
  <rect x="560" y="32" width="16" height="16" fill="#00dcdc"/>
  <rect x="576" y="32" width="16" height="16" fill="#00dcdc"/>
  <rect x="592" y="32" width="16" height="16" fill="#00dcdc"/>
  <rect x="608" y="32" width="16" height="16" fill="#00dcdc"/>
  <rect x="672" y="32" width="16" height="16" fill="#00dcdc"/>
  <rect x="688" y="32" width="16" height="16" fill="#00dcdc"/>
  <rect x="768" y="32" width="16" height="16" fill="#00dcdc"/>
  <rect x="784" y="32" width="16" height="16" fill="#00dcdc"/>
  <rect x="800" y="32" width="16" height="16" fill="#00dcdc"/>
  <rect x="816" y="32" width="16" height="16" fill="#00dcdc"/>
  <rect x="832" y="32" width="16" height="16" fill="#00dcdc"/>
  <rect x="848" y="32" width="16" height="16" fill="#00dcdc"/>
  <rect x="864" y="32" width="16" height="16" fill="#00dcdc"/>
  <rect x="896" y="32" width="16" height="16" fill="#00dcdc"/>
  <rect x="912" y="32" width="16" height="16" fill="#00dcdc"/>
  <rect x="928" y="32" width="16" height="16" fill="#00dcdc"/>
  <rect x="944" y="32" width="16" height="16" fill="#00dcdc"/>
  <rect x="960" y="32" width="16" height="16" fill="#00dcdc"/>
  <rect x="976" y="32" width="16" height="16" fill="#00dcdc"/>
  <rect x="1040" y="32" width="16" height="16" fill="#00dcdc"/>
  <rect x="1056" y="32" width="16" height="16" fill="#00dcdc"/>
  <rect x="1072" y="32" width="16" height="16" fill="#00dcdc"/>
  <rect x="1088" y="32" width="16" height="16" fill="#00dcdc"/>
  <rect x="1184" y="32" width="16" height="16" fill="#00dcdc"/>
  <rect x="1200" y="32" width="16" height="16" fill="#00dcdc"/>
  <rect x="1216" y="32" width="16" height="16" fill="#00dcdc"/>
  <rect x="1232" y="32" width="16" height="16" fill="#00dcdc"/>
  <rect x="1280" y="32" width="16" height="16" fill="#00dcdc"/>
  <rect x="1296" y="32" width="16" height="16" fill="#00dcdc"/>
  <rect x="1344" y="32" width="16" height="16" fill="#00dcdc"/>
  <rect x="1360" y="32" width="16" height="16" fill="#00dcdc"/>
  <rect x="1440" y="32" width="16" height="16" fill="#00dcdc"/>
  <rect x="1456" y="32" width="16" height="16" fill="#00dcdc"/>
  <rect x="1472" y="32" width="16" height="16" fill="#00dcdc"/>
  <rect x="1536" y="32" width="16" height="16" fill="#00dcdc"/>
  <rect x="1552" y="32" width="16" height="16" fill="#00dcdc"/>
  <rect x="1568" y="32" width="16" height="16" fill="#00dcdc"/>
  <rect x="1600" y="32" width="16" height="16" fill="#00dcdc"/>
  <rect x="1616" y="32" width="16" height="16" fill="#00dcdc"/>
  <rect x="80" y="48" width="16" height="16" fill="#00dcdc"/>
  <rect x="96" y="48" width="16" height="16" fill="#00dcdc"/>
  <rect x="128" y="48" width="16" height="16" fill="#00dcdc"/>
  <rect x="144" y="48" width="16" height="16" fill="#00dcdc"/>
  <rect x="208" y="48" width="16" height="16" fill="#00dcdc"/>
  <rect x="224" y="48" width="16" height="16" fill="#00dcdc"/>
  <rect x="256" y="48" width="16" height="16" fill="#00dcdc"/>
  <rect x="272" y="48" width="16" height="16" fill="#00dcdc"/>
  <rect x="384" y="48" width="16" height="16" fill="#00dcdc"/>
  <rect x="400" y="48" width="16" height="16" fill="#00dcdc"/>
  <rect x="464" y="48" width="16" height="16" fill="#00dcdc"/>
  <rect x="480" y="48" width="16" height="16" fill="#00dcdc"/>
  <rect x="512" y="48" width="16" height="16" fill="#00dcdc"/>
  <rect x="528" y="48" width="16" height="16" fill="#00dcdc"/>
  <rect x="592" y="48" width="16" height="16" fill="#00dcdc"/>
  <rect x="608" y="48" width="16" height="16" fill="#00dcdc"/>
  <rect x="640" y="48" width="16" height="16" fill="#00dcdc"/>
  <rect x="656" y="48" width="16" height="16" fill="#00dcdc"/>
  <rect x="672" y="48" width="16" height="16" fill="#00dcdc"/>
  <rect x="688" y="48" width="16" height="16" fill="#00dcdc"/>
  <rect x="704" y="48" width="16" height="16" fill="#00dcdc"/>
  <rect x="720" y="48" width="16" height="16" fill="#00dcdc"/>
  <rect x="736" y="48" width="16" height="16" fill="#00dcdc"/>
  <rect x="768" y="48" width="16" height="16" fill="#00dcdc"/>
  <rect x="784" y="48" width="16" height="16" fill="#00dcdc"/>
  <rect x="848" y="48" width="16" height="16" fill="#00dcdc"/>
  <rect x="864" y="48" width="16" height="16" fill="#00dcdc"/>
  <rect x="896" y="48" width="16" height="16" fill="#00dcdc"/>
  <rect x="912" y="48" width="16" height="16" fill="#00dcdc"/>
  <rect x="976" y="48" width="16" height="16" fill="#00dcdc"/>
  <rect x="992" y="48" width="16" height="16" fill="#00dcdc"/>
  <rect x="1056" y="48" width="16" height="16" fill="#00dcdc"/>
  <rect x="1072" y="48" width="16" height="16" fill="#00dcdc"/>
  <rect x="1088" y="48" width="16" height="16" fill="#00dcdc"/>
  <rect x="1200" y="48" width="16" height="16" fill="#00dcdc"/>
  <rect x="1216" y="48" width="16" height="16" fill="#00dcdc"/>
  <rect x="1232" y="48" width="16" height="16" fill="#00dcdc"/>
  <rect x="1280" y="48" width="16" height="16" fill="#00dcdc"/>
  <rect x="1296" y="48" width="16" height="16" fill="#00dcdc"/>
  <rect x="1328" y="48" width="16" height="16" fill="#00dcdc"/>
  <rect x="1344" y="48" width="16" height="16" fill="#00dcdc"/>
  <rect x="1440" y="48" width="16" height="16" fill="#00dcdc"/>
  <rect x="1456" y="48" width="16" height="16" fill="#00dcdc"/>
  <rect x="1472" y="48" width="16" height="16" fill="#00dcdc"/>
  <rect x="1536" y="48" width="16" height="16" fill="#00dcdc"/>
  <rect x="1552" y="48" width="16" height="16" fill="#00dcdc"/>
  <rect x="1584" y="48" width="16" height="16" fill="#00dcdc"/>
  <rect x="1616" y="48" width="16" height="16" fill="#00dcdc"/>
  <rect x="1632" y="48" width="16" height="16" fill="#00dcdc"/>
  <rect x="0" y="64" width="16" height="16" fill="#00dcdc"/>
  <rect x="16" y="64" width="16" height="16" fill="#00dcdc"/>
  <rect x="32" y="64" width="16" height="16" fill="#00dcdc"/>
  <rect x="48" y="64" width="16" height="16" fill="#00dcdc"/>
  <rect x="64" y="64" width="16" height="16" fill="#00dcdc"/>
  <rect x="80" y="64" width="16" height="16" fill="#00dcdc"/>
  <rect x="96" y="64" width="16" height="16" fill="#00dcdc"/>
  <rect x="128" y="64" width="16" height="16" fill="#00dcdc"/>
  <rect x="144" y="64" width="16" height="16" fill="#00dcdc"/>
  <rect x="208" y="64" width="16" height="16" fill="#00dcdc"/>
  <rect x="224" y="64" width="16" height="16" fill="#00dcdc"/>
  <rect x="256" y="64" width="16" height="16" fill="#00dcdc"/>
  <rect x="272" y="64" width="16" height="16" fill="#00dcdc"/>
  <rect x="384" y="64" width="16" height="16" fill="#00dcdc"/>
  <rect x="400" y="64" width="16" height="16" fill="#00dcdc"/>
  <rect x="464" y="64" width="16" height="16" fill="#00dcdc"/>
  <rect x="480" y="64" width="16" height="16" fill="#00dcdc"/>
  <rect x="512" y="64" width="16" height="16" fill="#00dcdc"/>
  <rect x="528" y="64" width="16" height="16" fill="#00dcdc"/>
  <rect x="544" y="64" width="16" height="16" fill="#00dcdc"/>
  <rect x="560" y="64" width="16" height="16" fill="#00dcdc"/>
  <rect x="576" y="64" width="16" height="16" fill="#00dcdc"/>
  <rect x="592" y="64" width="16" height="16" fill="#00dcdc"/>
  <rect x="608" y="64" width="16" height="16" fill="#00dcdc"/>
  <rect x="672" y="64" width="16" height="16" fill="#00dcdc"/>
  <rect x="688" y="64" width="16" height="16" fill="#00dcdc"/>
  <rect x="768" y="64" width="16" height="16" fill="#00dcdc"/>
  <rect x="784" y="64" width="16" height="16" fill="#00dcdc"/>
  <rect x="848" y="64" width="16" height="16" fill="#00dcdc"/>
  <rect x="864" y="64" width="16" height="16" fill="#00dcdc"/>
  <rect x="896" y="64" width="16" height="16" fill="#00dcdc"/>
  <rect x="912" y="64" width="16" height="16" fill="#00dcdc"/>
  <rect x="976" y="64" width="16" height="16" fill="#00dcdc"/>
  <rect x="992" y="64" width="16" height="16" fill="#00dcdc"/>
  <rect x="1056" y="64" width="16" height="16" fill="#00dcdc"/>
  <rect x="1072" y="64" width="16" height="16" fill="#00dcdc"/>
  <rect x="1088" y="64" width="16" height="16" fill="#00dcdc"/>
  <rect x="1200" y="64" width="16" height="16" fill="#00dcdc"/>
  <rect x="1216" y="64" width="16" height="16" fill="#00dcdc"/>
  <rect x="1232" y="64" width="16" height="16" fill="#00dcdc"/>
  <rect x="1280" y="64" width="16" height="16" fill="#00dcdc"/>
  <rect x="1296" y="64" width="16" height="16" fill="#00dcdc"/>
  <rect x="1312" y="64" width="16" height="16" fill="#00dcdc"/>
  <rect x="1328" y="64" width="16" height="16" fill="#00dcdc"/>
  <rect x="1440" y="64" width="16" height="16" fill="#00dcdc"/>
  <rect x="1456" y="64" width="16" height="16" fill="#00dcdc"/>
  <rect x="1472" y="64" width="16" height="16" fill="#00dcdc"/>
  <rect x="1536" y="64" width="16" height="16" fill="#00dcdc"/>
  <rect x="1552" y="64" width="16" height="16" fill="#00dcdc"/>
  <rect x="1584" y="64" width="16" height="16" fill="#00dcdc"/>
  <rect x="1616" y="64" width="16" height="16" fill="#00dcdc"/>
  <rect x="1632" y="64" width="16" height="16" fill="#00dcdc"/>
  <rect x="0" y="80" width="16" height="16" fill="#00dcdc"/>
  <rect x="16" y="80" width="16" height="16" fill="#00dcdc"/>
  <rect x="80" y="80" width="16" height="16" fill="#00dcdc"/>
  <rect x="96" y="80" width="16" height="16" fill="#00dcdc"/>
  <rect x="128" y="80" width="16" height="16" fill="#00dcdc"/>
  <rect x="144" y="80" width="16" height="16" fill="#00dcdc"/>
  <rect x="208" y="80" width="16" height="16" fill="#00dcdc"/>
  <rect x="224" y="80" width="16" height="16" fill="#00dcdc"/>
  <rect x="256" y="80" width="16" height="16" fill="#00dcdc"/>
  <rect x="272" y="80" width="16" height="16" fill="#00dcdc"/>
  <rect x="384" y="80" width="16" height="16" fill="#00dcdc"/>
  <rect x="400" y="80" width="16" height="16" fill="#00dcdc"/>
  <rect x="464" y="80" width="16" height="16" fill="#00dcdc"/>
  <rect x="480" y="80" width="16" height="16" fill="#00dcdc"/>
  <rect x="512" y="80" width="16" height="16" fill="#00dcdc"/>
  <rect x="528" y="80" width="16" height="16" fill="#00dcdc"/>
  <rect x="672" y="80" width="16" height="16" fill="#00dcdc"/>
  <rect x="688" y="80" width="16" height="16" fill="#00dcdc"/>
  <rect x="768" y="80" width="16" height="16" fill="#00dcdc"/>
  <rect x="784" y="80" width="16" height="16" fill="#00dcdc"/>
  <rect x="848" y="80" width="16" height="16" fill="#00dcdc"/>
  <rect x="864" y="80" width="16" height="16" fill="#00dcdc"/>
  <rect x="896" y="80" width="16" height="16" fill="#00dcdc"/>
  <rect x="912" y="80" width="16" height="16" fill="#00dcdc"/>
  <rect x="976" y="80" width="16" height="16" fill="#00dcdc"/>
  <rect x="992" y="80" width="16" height="16" fill="#00dcdc"/>
  <rect x="1056" y="80" width="16" height="16" fill="#00dcdc"/>
  <rect x="1072" y="80" width="16" height="16" fill="#00dcdc"/>
  <rect x="1088" y="80" width="16" height="16" fill="#00dcdc"/>
  <rect x="1200" y="80" width="16" height="16" fill="#00dcdc"/>
  <rect x="1216" y="80" width="16" height="16" fill="#00dcdc"/>
  <rect x="1232" y="80" width="16" height="16" fill="#00dcdc"/>
  <rect x="1280" y="80" width="16" height="16" fill="#00dcdc"/>
  <rect x="1296" y="80" width="16" height="16" fill="#00dcdc"/>
  <rect x="1328" y="80" width="16" height="16" fill="#00dcdc"/>
  <rect x="1344" y="80" width="16" height="16" fill="#00dcdc"/>
  <rect x="1440" y="80" width="16" height="16" fill="#00dcdc"/>
  <rect x="1456" y="80" width="16" height="16" fill="#00dcdc"/>
  <rect x="1472" y="80" width="16" height="16" fill="#00dcdc"/>
  <rect x="1536" y="80" width="16" height="16" fill="#00dcdc"/>
  <rect x="1552" y="80" width="16" height="16" fill="#00dcdc"/>
  <rect x="1616" y="80" width="16" height="16" fill="#00dcdc"/>
  <rect x="1632" y="80" width="16" height="16" fill="#00dcdc"/>
  <rect x="0" y="96" width="16" height="16" fill="#00dcdc"/>
  <rect x="16" y="96" width="16" height="16" fill="#00dcdc"/>
  <rect x="32" y="96" width="16" height="16" fill="#00dcdc"/>
  <rect x="48" y="96" width="16" height="16" fill="#00dcdc"/>
  <rect x="64" y="96" width="16" height="16" fill="#00dcdc"/>
  <rect x="80" y="96" width="16" height="16" fill="#00dcdc"/>
  <rect x="96" y="96" width="16" height="16" fill="#00dcdc"/>
  <rect x="128" y="96" width="16" height="16" fill="#00dcdc"/>
  <rect x="144" y="96" width="16" height="16" fill="#00dcdc"/>
  <rect x="160" y="96" width="16" height="16" fill="#00dcdc"/>
  <rect x="176" y="96" width="16" height="16" fill="#00dcdc"/>
  <rect x="192" y="96" width="16" height="16" fill="#00dcdc"/>
  <rect x="208" y="96" width="16" height="16" fill="#00dcdc"/>
  <rect x="256" y="96" width="16" height="16" fill="#00dcdc"/>
  <rect x="272" y="96" width="16" height="16" fill="#00dcdc"/>
  <rect x="288" y="96" width="16" height="16" fill="#00dcdc"/>
  <rect x="304" y="96" width="16" height="16" fill="#00dcdc"/>
  <rect x="320" y="96" width="16" height="16" fill="#00dcdc"/>
  <rect x="336" y="96" width="16" height="16" fill="#00dcdc"/>
  <rect x="352" y="96" width="16" height="16" fill="#00dcdc"/>
  <rect x="384" y="96" width="16" height="16" fill="#00dcdc"/>
  <rect x="400" y="96" width="16" height="16" fill="#00dcdc"/>
  <rect x="416" y="96" width="16" height="16" fill="#00dcdc"/>
  <rect x="432" y="96" width="16" height="16" fill="#00dcdc"/>
  <rect x="448" y="96" width="16" height="16" fill="#00dcdc"/>
  <rect x="464" y="96" width="16" height="16" fill="#00dcdc"/>
  <rect x="480" y="96" width="16" height="16" fill="#00dcdc"/>
  <rect x="512" y="96" width="16" height="16" fill="#00dcdc"/>
  <rect x="528" y="96" width="16" height="16" fill="#00dcdc"/>
  <rect x="544" y="96" width="16" height="16" fill="#00dcdc"/>
  <rect x="560" y="96" width="16" height="16" fill="#00dcdc"/>
  <rect x="576" y="96" width="16" height="16" fill="#00dcdc"/>
  <rect x="592" y="96" width="16" height="16" fill="#00dcdc"/>
  <rect x="608" y="96" width="16" height="16" fill="#00dcdc"/>
  <rect x="672" y="96" width="16" height="16" fill="#00dcdc"/>
  <rect x="688" y="96" width="16" height="16" fill="#00dcdc"/>
  <rect x="768" y="96" width="16" height="16" fill="#00dcdc"/>
  <rect x="784" y="96" width="16" height="16" fill="#00dcdc"/>
  <rect x="800" y="96" width="16" height="16" fill="#00dcdc"/>
  <rect x="816" y="96" width="16" height="16" fill="#00dcdc"/>
  <rect x="832" y="96" width="16" height="16" fill="#00dcdc"/>
  <rect x="848" y="96" width="16" height="16" fill="#00dcdc"/>
  <rect x="864" y="96" width="16" height="16" fill="#00dcdc"/>
  <rect x="896" y="96" width="16" height="16" fill="#00dcdc"/>
  <rect x="912" y="96" width="16" height="16" fill="#00dcdc"/>
  <rect x="976" y="96" width="16" height="16" fill="#00dcdc"/>
  <rect x="992" y="96" width="16" height="16" fill="#00dcdc"/>
  <rect x="1040" y="96" width="16" height="16" fill="#00dcdc"/>
  <rect x="1056" y="96" width="16" height="16" fill="#00dcdc"/>
  <rect x="1072" y="96" width="16" height="16" fill="#00dcdc"/>
  <rect x="1088" y="96" width="16" height="16" fill="#00dcdc"/>
  <rect x="1104" y="96" width="16" height="16" fill="#00dcdc"/>
  <rect x="1200" y="96" width="16" height="16" fill="#00dcdc"/>
  <rect x="1216" y="96" width="16" height="16" fill="#00dcdc"/>
  <rect x="1232" y="96" width="16" height="16" fill="#00dcdc"/>
  <rect x="1280" y="96" width="16" height="16" fill="#00dcdc"/>
  <rect x="1296" y="96" width="16" height="16" fill="#00dcdc"/>
  <rect x="1344" y="96" width="16" height="16" fill="#00dcdc"/>
  <rect x="1360" y="96" width="16" height="16" fill="#00dcdc"/>
  <rect x="1424" y="96" width="16" height="16" fill="#00dcdc"/>
  <rect x="1440" y="96" width="16" height="16" fill="#00dcdc"/>
  <rect x="1456" y="96" width="16" height="16" fill="#00dcdc"/>
  <rect x="1472" y="96" width="16" height="16" fill="#00dcdc"/>
  <rect x="1488" y="96" width="16" height="16" fill="#00dcdc"/>
  <rect x="1536" y="96" width="16" height="16" fill="#00dcdc"/>
  <rect x="1552" y="96" width="16" height="16" fill="#00dcdc"/>
  <rect x="1616" y="96" width="16" height="16" fill="#00dcdc"/>
  <rect x="1632" y="96" width="16" height="16" fill="#00dcdc"/>
  <rect x="848" y="112" width="16" height="16" fill="#00dcdc"/>
  <rect x="864" y="112" width="16" height="16" fill="#00dcdc"/>
  <rect x="1152" y="112" width="16" height="16" fill="#00dcdc"/>
  <rect x="1168" y="112" width="16" height="16" fill="#00dcdc"/>
  <rect x="1200" y="112" width="16" height="16" fill="#00dcdc"/>
  <rect x="1216" y="112" width="16" height="16" fill="#00dcdc"/>
  <rect x="1232" y="112" width="16" height="16" fill="#00dcdc"/>
  <rect x="768" y="128" width="16" height="16" fill="#00dcdc"/>
  <rect x="784" y="128" width="16" height="16" fill="#00dcdc"/>
  <rect x="800" y="128" width="16" height="16" fill="#00dcdc"/>
  <rect x="816" y="128" width="16" height="16" fill="#00dcdc"/>
  <rect x="832" y="128" width="16" height="16" fill="#00dcdc"/>
  <rect x="848" y="128" width="16" height="16" fill="#00dcdc"/>
  <rect x="864" y="128" width="16" height="16" fill="#00dcdc"/>
  <rect x="1152" y="128" width="16" height="16" fill="#00dcdc"/>
  <rect x="1168" y="128" width="16" height="16" fill="#00dcdc"/>
  <rect x="1184" y="128" width="16" height="16" fill="#00dcdc"/>
  <rect x="1200" y="128" width="16" height="16" fill="#00dcdc"/>
  <rect x="1216" y="128" width="16" height="16" fill="#00dcdc"/>
  <rect x="1232" y="128" width="16" height="16" fill="#00dcdc"/>
</svg>