<svg xmlns="http://www.w3.org/2000/svg" width="1136" height="144" viewBox="0 0 1136 144">
  <rect x="32" y="0" width="16" height="16" fill="#00dcdc"/>
  <rect x="48" y="0" width="16" height="16" fill="#00dcdc"/>
  <rect x="64" y="0" width="16" height="16" fill="#00dcdc"/>
  <rect x="144" y="0" width="16" height="16" fill="#00dcdc"/>
  <rect x="160" y="0" width="16" height="16" fill="#00dcdc"/>
  <rect x="176" y="0" width="16" height="16" fill="#00dcdc"/>
  <rect x="192" y="0" width="16" height="16" fill="#00dcdc"/>
  <rect x="208" y="0" width="16" height="16" fill="#00dcdc"/>
  <rect x="976" y="0" width="16" height="16" fill="#00dcdc"/>
  <rect x="992" y="0" width="16" height="16" fill="#00dcdc"/>
  <rect x="32" y="16" width="16" height="16" fill="#00dcdc"/>
  <rect x="48" y="16" width="16" height="16" fill="#00dcdc"/>
  <rect x="64" y="16" width="16" height="16" fill="#00dcdc"/>
  <rect x="128" y="16" width="16" height="16" fill="#00dcdc"/>
  <rect x="144" y="16" width="16" height="16" fill="#00dcdc"/>
  <rect x="208" y="16" width="16" height="16" fill="#00dcdc"/>
  <rect x="224" y="16" width="16" height="16" fill="#00dcdc"/>
  <rect x="800" y="16" width="16" height="16" fill="#00dcdc"/>
  <rect x="816" y="16" width="16" height="16" fill="#00dcdc"/>
  <rect x="832" y="16" width="16" height="16" fill="#00dcdc"/>
  <rect x="960" y="16" width="16" height="16" fill="#00dcdc"/>
  <rect x="976" y="16" width="16" height="16" fill="#00dcdc"/>
  <rect x="32" y="32" width="16" height="16" fill="#00dcdc"/>
  <rect x="48" y="32" width="16" height="16" fill="#00dcdc"/>
  <rect x="64" y="32" width="16" height="16" fill="#00dcdc"/>
  <rect x="208" y="32" width="16" height="16" fill="#00dcdc"/>
  <rect x="224" y="32" width="16" height="16" fill="#00dcdc"/>
  <rect x="544" y="32" width="16" height="16" fill="#00dcdc"/>
  <rect x="560" y="32" width="16" height="16" fill="#00dcdc"/>
  <rect x="576" y="32" width="16" height="16" fill="#00dcdc"/>
  <rect x="800" y="32" width="16" height="16" fill="#00dcdc"/>
  <rect x="816" y="32" width="16" height="16" fill="#00dcdc"/>
  <rect x="832" y="32" width="16" height="16" fill="#00dcdc"/>
  <rect x="944" y="32" width="16" height="16" fill="#00dcdc"/>
  <rect x="960" y="32" width="16" height="16" fill="#00dcdc"/>
  <rect x="32" y="48" width="16" height="16" fill="#00dcdc"/>
  <rect x="48" y="48" width="16" height="16" fill="#00dcdc"/>
  <rect x="64" y="48" width="16" height="16" fill="#00dcdc"/>
  <rect x="160" y="48" width="16" height="16" fill="#00dcdc"/>
  <rect x="176" y="48" width="16" height="16" fill="#00dcdc"/>
  <rect x="192" y="48" width="16" height="16" fill="#00dcdc"/>
  <rect x="208" y="48" width="16" height="16" fill="#00dcdc"/>
  <rect x="640" y="48" width="16" height="16" fill="#00dcdc"/>
  <rect x="656" y="48" width="16" height="16" fill="#00dcdc"/>
  <rect x="672" y="48" width="16" height="16" fill="#00dcdc"/>
  <rect x="688" y="48" width="16" height="16" fill="#00dcdc"/>
  <rect x="704" y="48" width="16" height="16" fill="#00dcdc"/>
  <rect x="720" y="48" width="16" height="16" fill="#00dcdc"/>
  <rect x="736" y="48" width="16" height="16" fill="#00dcdc"/>
  <rect x="768" y="48" width="16" height="16" fill="#00dcdc"/>
  <rect x="784" y="48" width="16" height="16" fill="#00dcdc"/>
  <rect x="800" y="48" width="16" height="16" fill="#00dcdc"/>
  <rect x="816" y="48" width="16" height="16" fill="#00dcdc"/>
  <rect x="832" y="48" width="16" height="16" fill="#00dcdc"/>
  <rect x="848" y="48" width="16" height="16" fill="#00dcdc"/>
  <rect x="864" y="48" width="16" height="16" fill="#00dcdc"/>
  <rect x="928" y="48" width="16" height="16" fill="#00dcdc"/>
  <rect x="944" y="48" width="16" height="16" fill="#00dcdc"/>
  <rect x="32" y="64" width="16" height="16" fill="#00dcdc"/>
  <rect x="48" y="64" width="16" height="16" fill="#00dcdc"/>
  <rect x="64" y="64" width="16" height="16" fill="#00dcdc"/>
  <rect x="160" y="64" width="16" height="16" fill="#00dcdc"/>
  <rect x="176" y="64" width="16" height="16" fill="#00dcdc"/>
  <rect x="192" y="64" width="16" height="16" fill="#00dcdc"/>
  <rect x="800" y="64" width="16" height="16" fill="#00dcdc"/>
  <rect x="816" y="64" width="16" height="16" fill="#00dcdc"/>
  <rect x="832" y="64" width="16" height="16" fill="#00dcdc"/>
  <rect x="912" y="64" width="16" height="16" fill="#00dcdc"/>
  <rect x="928" y="64" width="16" height="16" fill="#00dcdc"/>
  <rect x="416" y="80" width="16" height="16" fill="#00dcdc"/>
  <rect x="432" y="80" width="16" height="16" fill="#00dcdc"/>
  <rect x="448" y="80" width="16" height="16" fill="#00dcdc"/>
  <rect x="544" y="80" width="16" height="16" fill="#00dcdc"/>
  <rect x="560" y="80" width="16" height="16" fill="#00dcdc"/>
  <rect x="576" y="80" width="16" height="16" fill="#00dcdc"/>
  <rect x="800" y="80" width="16" height="16" fill="#00dcdc"/>
  <rect x="816" y="80" width="16" height="16" fill="#00dcdc"/>
  <rect x="832" y="80" width="16" height="16" fill="#00dcdc"/>
  <rect x="896" y="80" width="16" height="16" fill="#00dcdc"/>
  <rect x="912" y="80" width="16" height="16" fill="#00dcdc"/>
  <rect x="32" y="96" width="16" height="16" fill="#00dcdc"/>
  <rect x="48" y="96" width="16" height="16" fill="#00dcdc"/>
  <rect x="64" y="96" width="16" height="16" fill="#00dcdc"/>
  <rect x="160" y="96" width="16" height="16" fill="#00dcdc"/>
  <rect x="176" y="96" width="16" height="16" fill="#00dcdc"/>
  <rect x="192" y="96" width="16" height="16" fill="#00dcdc"/>
  <rect x="288" y="96" width="16" height="16" fill="#00dcdc"/>
  <rect x="304" y="96" width="16" height="16" fill="#00dcdc"/>
  <rect x="320" y="96" width="16" height="16" fill="#00dcdc"/>
  <rect x="400" y="96" width="16" height="16" fill="#00dcdc"/>
  <rect x="416" y="96" width="16" height="16" fill="#00dcdc"/>
  <rect x="896" y="96" width="16" height="16" fill="#00dcdc"/>
  <rect x="912" y="96" width="16" height="16" fill="#00dcdc"/>
  <rect x="1024" y="96" width="16" height="16" fill="#00dcdc"/>
  <rect x="1040" y="96" width="16" height="16" fill="#00dcdc"/>
  <rect x="1056" y="96" width="16" height="16" fill="#00dcdc"/>
  <rect x="1072" y="96" width="16" height="16" fill="#00dcdc"/>
  <rect x="1088" y="96" width="16" height="16" fill="#00dcdc"/>
  <rect x="1104" y="96" width="16" height="16" fill="#00dcdc"/>
  <rect x="1120" y="96" width="16" height="16" fill="#00dcdc"/>
</svg>