<svg xmlns="http://www.w3.org/2000/svg" width="832" height="144" viewBox="0 0 832 144">
  <path fill="#32ff32" d="M0,0h112v16h-112zM144,0h96v16h-96zM288,0h112v16h-112zM432,0h112v16h-112zM576,0h96v16h-96zM720,0h112v16h-112zM0,16h32v16h-32zM80,16h32v16h-32zM144,16h32v16h-32zM224,16h32v16h-32zM288,16h32v16h-32zM432,16h32v16h-32zM512,16h32v16h-32zM576,16h32v16h-32zM656,16h32v16h-32zM720,16h32v16h-32zM0,32h32v16h-32zM80,32h32v16h-32zM144,32h32v16h-32zM224,32h32v16h-32zM288,32h32v16h-32zM432,32h32v16h-32zM512,32h32v16h-32zM576,32h32v16h-32zM656,32h32v16h-32zM720,32h32v16h-32zM0,48h112v16h-112zM144,48h96v16h-96zM288,48h32v16h-32zM432,48h112v16h-112zM576,48h32v16h-32zM656,48h32v16h-32zM720,48h80v16h-80zM0,64h32v16h-32zM80,64h32v16h-32zM144,64h32v16h-32zM192,64h32v16h-32zM288,64h32v16h-32zM432,64h32v16h-32zM512,64h32v16h-32zM576,64h32v16h-32zM656,64h32v16h-32zM720,64h32v16h-32zM0,80h32v16h-32zM80,80h32v16h-32zM144,80h32v16h-32zM208,80h32v16h-32zM288,80h32v16h-32zM432,80h32v16h-32zM512,80h32v16h-32zM576,80h32v16h-32zM656,80h32v16h-32zM720,80h32v16h-32zM0,96h32v16h-32zM80,96h32v16h-32zM144,96h32v16h-32zM224,96h32v16h-32zM288,96h112v16h-112zM432,96h32v16h-32zM512,96h32v16h-32zM576,96h96v16h-96zM720,96h112v16h-112z"/>
</svg>