<svg xmlns="http://www.w3.org/2000/svg" width="600" height="216" viewBox="0 0 600 216">
  <path fill="#ffc800" d="M0,0h144v24h-144zM264,0h72v24h-72zM0,24h48v24h-48zM120,24h48v24h-48zM0,48h48v24h-48zM120,48h48v24h-48zM240,48h96v24h-96zM432,48h168v24h-168zM0,72h144v24h-144zM264,72h72v24h-72zM432,72h48v24h-48zM552,72h48v24h-48zM0,96h48v24h-48zM120,96h48v24h-48zM264,96h72v24h-72zM432,96h48v24h-48zM552,96h48v24h-48zM0,120h48v24h-48zM120,120h48v24h-48zM264,120h72v24h-72zM432,120h48v24h-48zM552,120h48v24h-48zM0,144h144v24h-144zM240,144h120v24h-120zM432,144h168v24h-168zM552,168h48v24h-48zM432,192h168v24h-168z"/>
</svg>