<svg xmlns="http://www.w3.org/2000/svg" width="544" height="144" viewBox="0 0 544 144">
  <path fill="#ff0d00" d="M32,0h16v16h-16zM32,16h16v16h-16zM32,32h16v16h-16zM32,48h16v16h-16zM32,64h16v16h-16zM32,80h16v16h-16zM32,96h16v16h-16z"/>
  <path fill="#ff1400" d="M48,0h16v16h-16zM48,16h16v16h-16zM48,32h16v16h-16zM48,48h16v16h-16zM48,64h16v16h-16zM48,80h16v16h-16zM48,96h16v16h-16z"/>
  <path fill="#ff1b00" d="M64,0h16v16h-16zM64,48h16v16h-16z"/>
  <path fill="#ff2100" d="M80,0h16v16h-16zM80,48h16v16h-16z"/>
  <path fill="#ff2800" d="M96,0h16v16h-16zM96,48h16v16h-16z"/>
  <path fill="#ff4900" d="M176,0h16v16h-16zM176,32h16v16h-16zM176,48h16v16h-16zM176,64h16v16h-16zM176,80h16v16h-16zM176,96h16v16h-16z"/>
  <path fill="#ff5000" d="M192,0h16v16h-16zM192,32h16v16h-16zM192,48h16v16h-16zM192,64h16v16h-16zM192,80h16v16h-16zM192,96h16v16h-16z"/>
  <path fill="#ff5700" d="M208,0h16v16h-16zM208,32h16v16h-16zM208,48h16v16h-16zM208,64h16v16h-16zM208,80h16v16h-16zM208,96h16v16h-16z"/>
  <path fill="#ff4300" d="M160,32h16v16h-16zM160,96h16v16h-16z"/>
  <path fill="#ff7800" d="M288,32h16v16h-16zM288,48h16v16h-16zM288,64h16v16h-16zM288,80h16v16h-16zM288,96h16v16h-16z"/>
  <path fill="#ff7f00" d="M304,32h16v16h-16zM304,48h16v16h-16zM304,64h16v16h-16zM304,80h16v16h-16zM304,96h16v16h-16z"/>
  <path fill="#ff8c00" d="M336,32h16v16h-16z"/>
  <path fill="#ff9300" d="M352,32h16v16h-16z"/>
  <path fill="#ff9900" d="M368,32h16v16h-16z"/>
  <path fill="#ffa000" d="M384,32h16v16h-16z"/>
  <path fill="#ffb400" d="M432,32h16v16h-16zM432,48h16v16h-16zM432,64h16v16h-16zM432,80h16v16h-16zM432,96h16v16h-16z"/>
  <path fill="#ffbb00" d="M448,32h16v16h-16zM448,48h16v16h-16zM448,64h16v16h-16zM448,80h16v16h-16zM448,96h16v16h-16z"/>
  <path fill="#ffc100" d="M464,32h16v16h-16zM464,64h16v16h-16zM464,96h16v16h-16z"/>
  <path fill="#ffc800" d="M480,32h16v16h-16zM480,64h16v16h-16zM480,96h16v16h-16z"/>
  <path fill="#ffcf00" d="M496,32h16v16h-16zM496,64h16v16h-16zM496,96h16v16h-16z"/>
  <path fill="#ffd500" d="M512,32h16v16h-16zM512,48h16v16h-16zM512,64h16v16h-16zM512,96h16v16h-16z"/>
  <path fill="#ffdc00" d="M528,32h16v16h-16zM528,48h16v16h-16zM528,64h16v16h-16zM528,96h16v16h-16z"/>
  <path fill="#ff0000" d="M0,48h16v16h-16z"/>
  <path fill="#ff0700" d="M16,48h16v16h-16z"/>
  <path fill="#ff8500" d="M320,48h16v16h-16z"/>
  <path fill="#ff5d00" d="M224,96h16v16h-16z"/>
</svg>