<svg xmlns="http://www.w3.org/2000/svg" width="368" height="112" viewBox="0 0 368 112">
  <path fill="#ffc800" d="M16,0h48v16h-48zM112,0h48v16h-48zM192,0h16v16h-16zM288,0h48v16h-48zM0,16h16v16h-16zM96,16h16v16h-16zM160,16h16v16h-16zM192,16h16v16h-16zM288,16h16v16h-16zM336,16h16v16h-16zM0,32h16v16h-16zM96,32h16v16h-16zM160,32h16v16h-16zM192,32h16v16h-16zM288,32h16v16h-16zM352,32h16v16h-16zM0,48h16v16h-16zM32,48h48v16h-48zM96,48h16v16h-16zM160,48h16v16h-16zM192,48h16v16h-16zM288,48h16v16h-16zM352,48h16v16h-16zM0,64h16v16h-16zM64,64h16v16h-16zM96,64h16v16h-16zM160,64h16v16h-16zM192,64h16v16h-16zM288,64h16v16h-16zM352,64h16v16h-16zM16,80h16v16h-16zM64,80h16v16h-16zM96,80h16v16h-16zM160,80h16v16h-16zM208,80h16v16h-16zM288,80h16v16h-16zM336,80h16v16h-16zM32,96h32v16h-32zM112,96h48v16h-48zM208,96h64v16h-64zM304,96h32v16h-32z"/>
</svg>