<svg xmlns="http://www.w3.org/2000/svg" width="544" height="144" viewBox="0 0 544 144">
  <path fill="#32ff32" d="M0,0h32v16h-32zM432,0h32v16h-32zM0,16h32v16h-32zM432,16h32v16h-32zM0,32h96v16h-96zM144,32h112v16h-112zM288,32h112v16h-112zM432,32h32v16h-32zM496,32h32v16h-32zM0,48h32v16h-32zM80,48h32v16h-32zM224,48h32v16h-32zM288,48h32v16h-32zM432,48h32v16h-32zM480,48h32v16h-32zM0,64h32v16h-32zM80,64h32v16h-32zM144,64h112v16h-112zM288,64h32v16h-32zM432,64h64v16h-64zM0,80h32v16h-32zM80,80h32v16h-32zM144,80h32v16h-32zM224,80h32v16h-32zM288,80h32v16h-32zM432,80h32v16h-32zM480,80h32v16h-32zM0,96h32v16h-32zM80,96h32v16h-32zM144,96h112v16h-112zM288,96h112v16h-112zM432,96h32v16h-32zM496,96h32v16h-32z"/>
</svg>