<svg xmlns="http://www.w3.org/2000/svg" width="696" height="168" viewBox="0 0 696 168">
  <path fill="#ffffff" d="M0,0h24v24h-24zM96,0h24v24h-24zM144,0h120v24h-120zM288,0h24v24h-24zM432,0h24v24h-24zM600,0h72v24h-72zM0,24h24v24h-24zM96,24h24v24h-24zM144,24h24v24h-24zM288,24h24v24h-24zM432,24h24v24h-24zM576,24h24v24h-24zM672,24h24v24h-24zM0,48h24v24h-24zM96,48h24v24h-24zM144,48h24v24h-24zM288,48h24v24h-24zM432,48h24v24h-24zM576,48h24v24h-24zM672,48h24v24h-24zM0,72h120v24h-120zM144,72h96v24h-96zM288,72h24v24h-24zM432,72h24v24h-24zM576,72h24v24h-24zM672,72h24v24h-24zM0,96h24v24h-24zM96,96h24v24h-24zM144,96h24v24h-24zM288,96h24v24h-24zM432,96h24v24h-24zM576,96h24v24h-24zM672,96h24v24h-24zM0,120h24v24h-24zM96,120h24v24h-24zM144,120h24v24h-24zM288,120h24v24h-24zM432,120h24v24h-24zM576,120h24v24h-24zM672,120h24v24h-24zM0,144h24v24h-24zM96,144h24v24h-24zM144,144h120v24h-120zM288,144h120v24h-120zM432,144h120v24h-120zM600,144h72v24h-72z"/>
</svg>