<svg xmlns="http://www.w3.org/2000/svg" width="232" height="56" viewBox="0 0 232 56">
  <path fill="#ffffff" d="M0,0h8v8h-8zM32,0h8v8h-8zM48,0h40v8h-40zM96,0h8v8h-8zM144,0h8v8h-8zM200,0h24v8h-24zM0,8h8v8h-8zM32,8h8v8h-8zM48,8h8v8h-8zM96,8h8v8h-8zM144,8h8v8h-8zM192,8h8v8h-8zM224,8h8v8h-8zM0,16h8v8h-8zM32,16h8v8h-8zM48,16h8v8h-8zM96,16h8v8h-8zM144,16h8v8h-8zM192,16h8v8h-8zM224,16h8v8h-8zM0,24h40v8h-40zM48,24h32v8h-32zM96,24h8v8h-8zM144,24h8v8h-8zM192,24h8v8h-8zM224,24h8v8h-8zM0,32h8v8h-8zM32,32h8v8h-8zM48,32h8v8h-8zM96,32h8v8h-8zM144,32h8v8h-8zM192,32h8v8h-8zM224,32h8v8h-8zM0,40h8v8h-8zM32,40h8v8h-8zM48,40h8v8h-8zM96,40h8v8h-8zM144,40h8v8h-8zM192,40h8v8h-8zM224,40h8v8h-8zM0,48h8v8h-8zM32,48h8v8h-8zM48,48h40v8h-40zM96,48h40v8h-40zM144,48h40v8h-40zM200,48h24v8h-24z"/>
</svg>