<svg xmlns="http://www.w3.org/2000/svg" width="464" height="112" viewBox="0 0 464 112">
  <path fill="#ffffff" d="M0,0h16v16h-16zM64,0h16v16h-16zM96,0h80v16h-80zM192,0h16v16h-16zM288,0h16v16h-16zM400,0h48v16h-48zM0,16h16v16h-16zM64,16h16v16h-16zM96,16h16v16h-16zM192,16h16v16h-16zM288,16h16v16h-16zM384,16h16v16h-16zM448,16h16v16h-16zM0,32h16v16h-16zM64,32h16v16h-16zM96,32h16v16h-16zM192,32h16v16h-16zM288,32h16v16h-16zM384,32h16v16h-16zM448,32h16v16h-16zM0,48h80v16h-80zM96,48h64v16h-64zM192,48h16v16h-16zM288,48h16v16h-16zM384,48h16v16h-16zM448,48h16v16h-16zM0,64h16v16h-16zM64,64h16v16h-16zM96,64h16v16h-16zM192,64h16v16h-16zM288,64h16v16h-16zM384,64h16v16h-16zM448,64h16v16h-16zM0,80h16v16h-16zM64,80h16v16h-16zM96,80h16v16h-16zM192,80h16v16h-16zM288,80h16v16h-16zM384,80h16v16h-16zM448,80h16v16h-16zM0,96h16v16h-16zM64,96h16v16h-16zM96,96h80v16h-80zM192,96h80v16h-80zM288,96h80v16h-80zM400,96h48v16h-48z"/>
</svg>