<svg xmlns="http://www.w3.org/2000/svg" width="400" height="144" viewBox="0 0 400 144">
  <path fill="#d5f9f9" d="M32,0h16v16h-16zM32,32h16v16h-16zM32,48h16v16h-16zM32,64h16v16h-16zM32,80h16v16h-16zM32,96h16v16h-16z"/>
  <path fill="#bff6f6" d="M48,0h16v16h-16zM48,32h16v16h-16zM48,48h16v16h-16zM48,64h16v16h-16zM48,80h16v16h-16zM48,96h16v16h-16z"/>
  <path fill="#aaf3f3" d="M64,0h16v16h-16zM64,32h16v16h-16zM64,48h16v16h-16zM64,64h16v16h-16zM64,80h16v16h-16zM64,96h16v16h-16z"/>
  <path fill="#eafcfc" d="M16,32h16v16h-16zM16,96h16v16h-16z"/>
  <path fill="#40e5e5" d="M144,32h16v16h-16zM144,48h16v16h-16zM144,64h16v16h-16zM144,80h16v16h-16zM144,96h16v16h-16z"/>
  <path fill="#2be2e2" d="M160,32h16v16h-16zM160,48h16v16h-16zM160,64h16v16h-16zM160,80h16v16h-16zM160,96h16v16h-16z"/>
  <path fill="#15dfdf" d="M176,32h16v16h-16zM176,96h16v16h-16z"/>
  <path fill="#00dcdc" d="M192,32h16v16h-16zM192,96h16v16h-16z"/>
  <path fill="#00d2df" d="M208,32h16v16h-16zM208,96h16v16h-16z"/>
  <path fill="#00c8e2" d="M224,32h16v16h-16zM224,96h16v16h-16z"/>
  <path fill="#00bee5" d="M240,32h16v16h-16zM240,96h16v16h-16z"/>
  <path fill="#00a0ee" d="M288,32h16v16h-16zM288,48h16v16h-16zM288,64h16v16h-16zM288,80h16v16h-16zM288,96h16v16h-16z"/>
  <path fill="#0096f0" d="M304,32h16v16h-16zM304,48h16v16h-16zM304,64h16v16h-16zM304,80h16v16h-16zM304,96h16v16h-16z"/>
  <path fill="#008cf3" d="M320,32h16v16h-16zM320,64h16v16h-16zM320,96h16v16h-16z"/>
  <path fill="#0082f6" d="M336,32h16v16h-16zM336,64h16v16h-16zM336,96h16v16h-16z"/>
  <path fill="#0078f9" d="M352,32h16v16h-16zM352,64h16v16h-16zM352,96h16v16h-16z"/>
  <path fill="#006efc" d="M368,32h16v16h-16zM368,48h16v16h-16zM368,64h16v16h-16zM368,96h16v16h-16z"/>
  <path fill="#0064ff" d="M384,32h16v16h-16zM384,48h16v16h-16zM384,64h16v16h-16zM384,96h16v16h-16z"/>
  <path fill="#95f0f0" d="M80,96h16v16h-16z"/>
</svg>