<svg xmlns="http://www.w3.org/2000/svg" width="368" height="112" viewBox="0 0 368 112">
  <path fill="#00dcdc" d="M0,0h16v16h-16zM112,0h48v16h-48zM208,0h64v16h-64zM304,0h48v16h-48zM0,16h16v16h-16zM96,16h16v16h-16zM160,16h16v16h-16zM192,16h16v16h-16zM288,16h16v16h-16zM352,16h16v16h-16zM0,32h16v16h-16zM96,32h16v16h-16zM160,32h16v16h-16zM192,32h16v16h-16zM288,32h16v16h-16zM352,32h16v16h-16zM0,48h16v16h-16zM96,48h16v16h-16zM160,48h16v16h-16zM192,48h16v16h-16zM224,48h48v16h-48zM288,48h16v16h-16zM352,48h16v16h-16zM0,64h16v16h-16zM96,64h16v16h-16zM160,64h16v16h-16zM192,64h16v16h-16zM256,64h16v16h-16zM288,64h16v16h-16zM352,64h16v16h-16zM0,80h16v16h-16zM96,80h16v16h-16zM160,80h16v16h-16zM192,80h16v16h-16zM256,80h16v16h-16zM288,80h16v16h-16zM352,80h16v16h-16zM0,96h80v16h-80zM112,96h48v16h-48zM208,96h48v16h-48zM304,96h48v16h-48z"/>
</svg>