<svg xmlns="http://www.w3.org/2000/svg" width="544" height="144" viewBox="0 0 544 144">
  <path fill="#8000ff" d="M0,0h16v16h-16zM0,16h16v16h-16zM0,32h16v16h-16zM0,48h16v16h-16zM0,64h16v16h-16zM0,80h16v16h-16zM0,96h16v16h-16z"/>
  <path fill="#7c07fe" d="M16,0h16v16h-16zM16,16h16v16h-16zM16,32h16v16h-16zM16,48h16v16h-16zM16,64h16v16h-16zM16,80h16v16h-16zM16,96h16v16h-16z"/>
  <path fill="#6d21fa" d="M80,0h16v16h-16zM80,16h16v16h-16zM80,32h16v16h-16zM80,48h16v16h-16zM80,64h16v16h-16zM80,80h16v16h-16zM80,96h16v16h-16z"/>
  <path fill="#6928f9" d="M96,0h16v16h-16zM96,16h16v16h-16zM96,32h16v16h-16zM96,48h16v16h-16zM96,64h16v16h-16zM96,80h16v16h-16zM96,96h16v16h-16z"/>
  <path fill="#780dfd" d="M32,16h16v16h-16zM32,32h16v16h-16z"/>
  <path fill="#5d3cf5" d="M144,32h16v16h-16zM144,48h16v16h-16zM144,64h16v16h-16zM144,80h16v16h-16zM144,96h16v16h-16z"/>
  <path fill="#5943f4" d="M160,32h16v16h-16zM160,48h16v16h-16zM160,64h16v16h-16zM160,80h16v16h-16zM160,96h16v16h-16z"/>
  <path fill="#5549f3" d="M176,32h16v16h-16zM176,64h16v16h-16zM176,96h16v16h-16z"/>
  <path fill="#5150f2" d="M192,32h16v16h-16zM192,64h16v16h-16zM192,96h16v16h-16z"/>
  <path fill="#4e57f1" d="M208,32h16v16h-16zM208,64h16v16h-16zM208,96h16v16h-16z"/>
  <path fill="#4a5df0" d="M224,32h16v16h-16zM224,48h16v16h-16zM224,64h16v16h-16zM224,96h16v16h-16z"/>
  <path fill="#4664ef" d="M240,32h16v16h-16zM240,48h16v16h-16zM240,64h16v16h-16zM240,96h16v16h-16z"/>
  <path fill="#3a78ec" d="M288,32h16v16h-16zM288,48h16v16h-16zM288,64h16v16h-16zM288,80h16v16h-16zM288,96h16v16h-16z"/>
  <path fill="#367feb" d="M304,32h16v16h-16zM304,48h16v16h-16zM304,64h16v16h-16zM304,80h16v16h-16zM304,96h16v16h-16z"/>
  <path fill="#3285ea" d="M320,32h16v16h-16zM320,96h16v16h-16z"/>
  <path fill="#2f8ce9" d="M336,32h16v16h-16zM336,96h16v16h-16z"/>
  <path fill="#2b93e8" d="M352,32h16v16h-16zM352,96h16v16h-16z"/>
  <path fill="#2799e7" d="M368,32h16v16h-16zM368,48h16v16h-16zM368,64h16v16h-16zM368,80h16v16h-16zM368,96h16v16h-16z"/>
  <path fill="#23a0e6" d="M384,32h16v16h-16zM384,48h16v16h-16zM384,64h16v16h-16zM384,80h16v16h-16zM384,96h16v16h-16z"/>
  <path fill="#17b4e2" d="M432,32h16v16h-16zM432,48h16v16h-16zM432,64h16v16h-16zM432,80h16v16h-16zM432,96h16v16h-16z"/>
  <path fill="#13bbe1" d="M448,32h16v16h-16zM448,48h16v16h-16zM448,64h16v16h-16zM448,80h16v16h-16zM448,96h16v16h-16z"/>
  <path fill="#10c1e0" d="M464,32h16v16h-16z"/>
  <path fill="#0cc8df" d="M480,32h16v16h-16z"/>
  <path fill="#08cfde" d="M496,32h16v16h-16z"/>
  <path fill="#04d5dd" d="M512,32h16v16h-16zM512,48h16v16h-16zM512,64h16v16h-16zM512,80h16v16h-16zM512,96h16v16h-16z"/>
  <path fill="#7414fc" d="M48,48h16v16h-16z"/>
  <path fill="#00dcdc" d="M528,48h16v16h-16zM528,64h16v16h-16zM528,80h16v16h-16zM528,96h16v16h-16z"/>
  <path fill="#701bfb" d="M64,64h16v16h-16zM64,80h16v16h-16z"/>
</svg>