<svg xmlns="http://www.w3.org/2000/svg" width="368" height="112" viewBox="0 0 368 112">
  <path fill="#b43cff" d="M0,0h16v16h-16zM32,0h16v16h-16zM80,0h16v16h-16zM128,0h32v16h-32zM192,0h32v16h-32zM272,0h16v16h-16zM320,0h16v16h-16zM352,0h16v16h-16zM0,16h48v16h-48zM64,16h48v16h-48zM128,16h16v16h-16zM160,16h16v16h-16zM192,16h16v16h-16zM224,16h16v16h-16zM256,16h16v16h-16zM288,16h16v16h-16zM320,16h16v16h-16zM352,16h16v16h-16zM0,32h48v16h-48zM64,32h16v16h-16zM96,32h16v16h-16zM128,32h16v16h-16zM160,32h16v16h-16zM192,32h16v16h-16zM224,32h16v16h-16zM256,32h16v16h-16zM288,32h16v16h-16zM320,32h16v16h-16zM352,32h16v16h-16zM0,48h16v16h-16zM32,48h16v16h-16zM64,48h48v16h-48zM128,48h32v16h-32zM192,48h32v16h-32zM256,48h16v16h-16zM288,48h16v16h-16zM320,48h16v16h-16zM352,48h16v16h-16zM0,64h16v16h-16zM32,64h16v16h-16zM64,64h16v16h-16zM96,64h16v16h-16zM128,64h16v16h-16zM160,64h16v16h-16zM192,64h16v16h-16zM224,64h16v16h-16zM256,64h16v16h-16zM288,64h16v16h-16zM320,64h48v16h-48zM0,80h16v16h-16zM32,80h16v16h-16zM64,80h16v16h-16zM96,80h16v16h-16zM128,80h16v16h-16zM160,80h16v16h-16zM192,80h16v16h-16zM224,80h16v16h-16zM256,80h16v16h-16zM288,80h16v16h-16zM320,80h48v16h-48zM0,96h16v16h-16zM32,96h16v16h-16zM64,96h16v16h-16zM96,96h16v16h-16zM128,96h16v16h-16zM160,96h16v16h-16zM192,96h16v16h-16zM224,96h16v16h-16zM272,96h16v16h-16zM320,96h16v16h-16zM352,96h16v16h-16z"/>
</svg>