<svg xmlns="http://www.w3.org/2000/svg" width="544" height="144" viewBox="0 0 544 144">
  <path fill="#8000ff" d="M0,0h16v16h-16zM0,16h16v16h-16zM0,32h16v16h-16zM0,48h16v16h-16zM0,64h16v16h-16zM0,80h16v16h-16zM0,96h16v16h-16z"/>
  <path fill="#780dfd" d="M16,0h16v16h-16zM16,16h16v16h-16zM16,32h16v16h-16zM16,48h16v16h-16zM16,64h16v16h-16zM16,80h16v16h-16zM16,96h16v16h-16z"/>
  <path fill="#5943f4" d="M80,0h16v16h-16zM80,16h16v16h-16zM80,32h16v16h-16zM80,48h16v16h-16zM80,64h16v16h-16zM80,80h16v16h-16zM80,96h16v16h-16z"/>
  <path fill="#5150f2" d="M96,0h16v16h-16zM96,16h16v16h-16zM96,32h16v16h-16zM96,48h16v16h-16zM96,64h16v16h-16zM96,80h16v16h-16zM96,96h16v16h-16z"/>
  <path fill="#3a78ec" d="M144,0h16v16h-16zM144,16h16v16h-16zM144,32h16v16h-16zM144,48h16v16h-16zM144,64h16v16h-16zM144,80h16v16h-16zM144,96h16v16h-16z"/>
  <path fill="#3285ea" d="M160,0h16v16h-16zM160,16h16v16h-16zM160,32h16v16h-16zM160,48h16v16h-16zM160,64h16v16h-16zM160,80h16v16h-16zM160,96h16v16h-16z"/>
  <path fill="#2b93e8" d="M176,0h16v16h-16zM176,48h16v16h-16zM176,96h16v16h-16z"/>
  <path fill="#23a0e6" d="M192,0h16v16h-16zM192,48h16v16h-16zM192,96h16v16h-16z"/>
  <path fill="#1bade3" d="M208,0h16v16h-16zM208,48h16v16h-16zM208,96h16v16h-16z"/>
  <path fill="#13bbe1" d="M224,0h16v16h-16zM224,96h16v16h-16z"/>
  <path fill="#0cc8df" d="M240,0h16v16h-16zM240,96h16v16h-16z"/>
  <path fill="#05dfcd" d="M288,0h16v16h-16zM288,16h16v16h-16zM288,32h16v16h-16zM288,48h16v16h-16zM288,64h16v16h-16zM288,80h16v16h-16zM288,96h16v16h-16z"/>
  <path fill="#08e1c2" d="M304,0h16v16h-16zM304,16h16v16h-16zM304,32h16v16h-16zM304,48h16v16h-16zM304,64h16v16h-16zM304,80h16v16h-16zM304,96h16v16h-16z"/>
  <path fill="#0be3b8" d="M320,0h16v16h-16zM320,96h16v16h-16z"/>
  <path fill="#0ee6ae" d="M336,0h16v16h-16zM336,96h16v16h-16z"/>
  <path fill="#11e8a3" d="M352,0h16v16h-16zM352,96h16v16h-16z"/>
  <path fill="#14ea99" d="M368,0h16v16h-16zM368,16h16v16h-16zM368,32h16v16h-16zM368,48h16v16h-16zM368,64h16v16h-16zM368,80h16v16h-16zM368,96h16v16h-16z"/>
  <path fill="#17ec8f" d="M384,0h16v16h-16zM384,16h16v16h-16zM384,32h16v16h-16zM384,48h16v16h-16zM384,64h16v16h-16zM384,80h16v16h-16zM384,96h16v16h-16z"/>
  <path fill="#20f270" d="M432,0h16v16h-16zM432,16h16v16h-16zM432,32h16v16h-16zM432,48h16v16h-16zM432,64h16v16h-16zM432,80h16v16h-16zM432,96h16v16h-16z"/>
  <path fill="#23f466" d="M448,0h16v16h-16zM448,16h16v16h-16zM448,32h16v16h-16zM448,48h16v16h-16zM448,64h16v16h-16zM448,80h16v16h-16zM448,96h16v16h-16z"/>
  <path fill="#2ffd3c" d="M512,0h16v16h-16zM512,16h16v16h-16zM512,32h16v16h-16zM512,48h16v16h-16zM512,64h16v16h-16zM512,80h16v16h-16zM512,96h16v16h-16z"/>
  <path fill="#32ff32" d="M528,0h16v16h-16zM528,16h16v16h-16zM528,32h16v16h-16zM528,48h16v16h-16zM528,64h16v16h-16zM528,80h16v16h-16zM528,96h16v16h-16z"/>
  <path fill="#701bfb" d="M32,16h16v16h-16zM32,32h16v16h-16z"/>
  <path fill="#26f75b" d="M464,16h16v16h-16zM464,32h16v16h-16z"/>
  <path fill="#6928f9" d="M48,48h16v16h-16z"/>
  <path fill="#29f951" d="M480,48h16v16h-16z"/>
  <path fill="#6135f7" d="M64,64h16v16h-16zM64,80h16v16h-16z"/>
  <path fill="#2cfb47" d="M496,64h16v16h-16zM496,80h16v16h-16z"/>
</svg>