<svg xmlns="http://www.w3.org/2000/svg" width="800" height="144" viewBox="0 0 800 144">
  <path fill="#505050" d="M16,0h384v16h-384zM448,0h352v16h-352zM0,16h32v16h-32zM96,16h32v16h-32zM160,16h32v16h-32zM224,16h16v16h-16zM336,16h16v16h-16zM384,16h16v16h-16zM448,16h16v16h-16zM560,16h16v16h-16zM608,16h32v16h-32zM672,16h16v16h-16zM784,16h16v16h-16zM0,32h16v16h-16zM112,32h16v16h-16zM160,32h32v16h-32zM224,32h48v16h-48zM304,32h48v16h-48zM384,32h16v16h-16zM448,32h48v16h-48zM528,32h48v16h-48zM624,32h16v16h-16zM672,32h16v16h-16zM720,32h80v16h-80zM0,48h16v16h-16zM112,48h16v16h-16zM160,48h32v16h-32zM224,48h16v16h-16zM256,48h16v16h-16zM304,48h16v16h-16zM336,48h16v16h-16zM384,48h16v16h-16zM480,48h16v16h-16zM528,48h16v16h-16zM560,48h16v16h-16zM672,48h16v16h-16zM720,48h64v16h-64zM0,64h16v16h-16zM112,64h16v16h-16zM160,64h32v16h-32zM224,64h16v16h-16zM256,64h16v16h-16zM304,64h16v16h-16zM336,64h16v16h-16zM384,64h16v16h-16zM480,64h16v16h-16zM528,64h16v16h-16zM560,64h16v16h-16zM608,64h16v16h-16zM672,64h16v16h-16zM768,64h16v16h-16zM0,80h16v16h-16zM112,80h16v16h-16zM160,80h32v16h-32zM224,80h16v16h-16zM256,80h16v16h-16zM304,80h16v16h-16zM336,80h16v16h-16zM384,80h16v16h-16zM480,80h16v16h-16zM528,80h16v16h-16zM560,80h16v16h-16zM608,80h32v16h-32zM672,80h16v16h-16zM720,80h64v16h-64zM0,96h16v16h-16zM112,96h16v16h-16zM160,96h32v16h-32zM224,96h16v16h-16zM256,96h16v16h-16zM304,96h16v16h-16zM336,96h16v16h-16zM384,96h112v16h-112zM528,96h48v16h-48zM608,96h32v16h-32zM672,96h16v16h-16zM720,96h80v16h-80zM0,112h32v16h-32zM96,112h48v16h-48zM208,112h32v16h-32zM256,112h16v16h-16zM304,112h16v16h-16zM336,112h16v16h-16zM448,112h16v16h-16zM560,112h16v16h-16zM608,112h32v16h-32zM672,112h16v16h-16zM784,112h16v16h-16zM16,128h96v16h-96zM128,128h96v16h-96zM256,128h64v16h-64zM336,128h464v16h-464z"/>
  <path fill="#00dcdc" d="M32,16h64v16h-64zM128,16h32v16h-32zM192,16h32v16h-32zM240,16h96v16h-96zM352,16h32v16h-32zM464,16h96v16h-96zM576,16h32v16h-32zM640,16h32v16h-32zM688,16h96v16h-96zM16,32h32v16h-32zM80,32h32v16h-32zM128,32h32v16h-32zM192,32h32v16h-32zM272,32h32v16h-32zM352,32h32v16h-32zM496,32h32v16h-32zM576,32h48v16h-48zM640,32h32v16h-32zM688,32h32v16h-32zM16,48h32v16h-32zM80,48h32v16h-32zM128,48h32v16h-32zM192,48h32v16h-32zM272,48h32v16h-32zM352,48h32v16h-32zM496,48h32v16h-32zM576,48h96v16h-96zM688,48h32v16h-32zM16,64h32v16h-32zM80,64h32v16h-32zM128,64h32v16h-32zM192,64h32v16h-32zM272,64h32v16h-32zM352,64h32v16h-32zM496,64h32v16h-32zM576,64h32v16h-32zM624,64h48v16h-48zM688,64h80v16h-80zM16,80h32v16h-32zM80,80h32v16h-32zM128,80h32v16h-32zM192,80h32v16h-32zM272,80h32v16h-32zM352,80h32v16h-32zM496,80h32v16h-32zM576,80h32v16h-32zM640,80h32v16h-32zM688,80h32v16h-32zM16,96h32v16h-32zM80,96h32v16h-32zM128,96h32v16h-32zM192,96h32v16h-32zM272,96h32v16h-32zM352,96h32v16h-32zM496,96h32v16h-32zM576,96h32v16h-32zM640,96h32v16h-32zM688,96h32v16h-32zM32,112h64v16h-64zM144,112h64v16h-64zM272,112h32v16h-32zM352,112h96v16h-96zM464,112h96v16h-96zM576,112h32v16h-32zM640,112h32v16h-32zM688,112h96v16h-96z"/>
</svg>