<svg xmlns="http://www.w3.org/2000/svg" width="768" height="112" viewBox="0 0 768 112">
  <path fill="#505050" d="M0,0h16v16h-16zM80,0h32v16h-32zM144,0h32v16h-32zM208,0h16v16h-16zM320,0h16v16h-16zM368,0h16v16h-16zM432,0h16v16h-16zM544,0h16v16h-16zM592,0h32v16h-32zM656,0h16v16h-16zM32,16h32v16h-32zM96,16h16v16h-16zM144,16h32v16h-32zM208,16h48v16h-48zM288,16h48v16h-48zM368,16h16v16h-16zM448,16h32v16h-32zM512,16h48v16h-48zM608,16h16v16h-16zM656,16h16v16h-16zM704,16h64v16h-64zM32,32h32v16h-32zM96,32h16v16h-16zM144,32h32v16h-32zM208,32h16v16h-16zM240,32h16v16h-16zM288,32h16v16h-16zM320,32h16v16h-16zM368,32h16v16h-16zM464,32h16v16h-16zM512,32h16v16h-16zM544,32h16v16h-16zM656,32h16v16h-16zM704,32h48v16h-48zM32,48h32v16h-32zM96,48h16v16h-16zM144,48h32v16h-32zM208,48h16v16h-16zM240,48h16v16h-16zM288,48h16v16h-16zM320,48h16v16h-16zM368,48h16v16h-16zM464,48h16v16h-16zM512,48h16v16h-16zM544,48h16v16h-16zM592,48h16v16h-16zM656,48h16v16h-16zM752,48h16v16h-16zM32,64h32v16h-32zM96,64h16v16h-16zM144,64h32v16h-32zM208,64h16v16h-16zM240,64h16v16h-16zM288,64h16v16h-16zM320,64h16v16h-16zM368,64h16v16h-16zM464,64h16v16h-16zM512,64h16v16h-16zM544,64h16v16h-16zM592,64h32v16h-32zM656,64h16v16h-16zM704,64h48v16h-48zM32,80h32v16h-32zM96,80h16v16h-16zM144,80h32v16h-32zM208,80h16v16h-16zM240,80h16v16h-16zM288,80h16v16h-16zM320,80h16v16h-16zM368,80h64v16h-64zM448,80h32v16h-32zM512,80h48v16h-48zM592,80h32v16h-32zM656,80h16v16h-16zM704,80h64v16h-64zM0,96h16v16h-16zM80,96h16v16h-16zM112,96h16v16h-16zM192,96h16v16h-16zM240,96h16v16h-16zM288,96h16v16h-16zM320,96h16v16h-16zM432,96h16v16h-16zM544,96h16v16h-16zM592,96h32v16h-32zM656,96h16v16h-16z"/>
  <path fill="#00dcdc" d="M16,0h64v16h-64zM112,0h32v16h-32zM176,0h32v16h-32zM224,0h96v16h-96zM336,0h32v16h-32zM448,0h96v16h-96zM560,0h32v16h-32zM624,0h32v16h-32zM672,0h96v16h-96zM0,16h32v16h-32zM64,16h32v16h-32zM112,16h32v16h-32zM176,16h32v16h-32zM256,16h32v16h-32zM336,16h32v16h-32zM480,16h32v16h-32zM560,16h48v16h-48zM624,16h32v16h-32zM672,16h32v16h-32zM0,32h32v16h-32zM64,32h32v16h-32zM112,32h32v16h-32zM176,32h32v16h-32zM256,32h32v16h-32zM336,32h32v16h-32zM480,32h32v16h-32zM560,32h96v16h-96zM672,32h32v16h-32zM0,48h32v16h-32zM64,48h32v16h-32zM112,48h32v16h-32zM176,48h32v16h-32zM256,48h32v16h-32zM336,48h32v16h-32zM480,48h32v16h-32zM560,48h32v16h-32zM608,48h48v16h-48zM672,48h80v16h-80zM0,64h32v16h-32zM64,64h32v16h-32zM112,64h32v16h-32zM176,64h32v16h-32zM256,64h32v16h-32zM336,64h32v16h-32zM480,64h32v16h-32zM560,64h32v16h-32zM624,64h32v16h-32zM672,64h32v16h-32zM0,80h32v16h-32zM64,80h32v16h-32zM112,80h32v16h-32zM176,80h32v16h-32zM256,80h32v16h-32zM336,80h32v16h-32zM480,80h32v16h-32zM560,80h32v16h-32zM624,80h32v16h-32zM672,80h32v16h-32zM16,96h64v16h-64zM128,96h64v16h-64zM256,96h32v16h-32zM336,96h96v16h-96zM448,96h96v16h-96zM560,96h32v16h-32zM624,96h32v16h-32zM672,96h96v16h-96z"/>
</svg>