<svg xmlns="http://www.w3.org/2000/svg" width="976" height="144" viewBox="0 0 976 144">
  <path fill="#ffc800" d="M0,0h112v16h-112zM320,0h48v16h-48zM896,0h48v16h-48zM0,16h32v16h-32zM80,16h32v16h-32zM0,32h32v16h-32zM80,32h32v16h-32zM144,32h32v16h-32zM224,32h32v16h-32zM304,32h64v16h-64zM432,32h112v16h-112zM720,32h112v16h-112zM880,32h64v16h-64zM0,48h32v16h-32zM80,48h32v16h-32zM144,48h32v16h-32zM224,48h32v16h-32zM320,48h48v16h-48zM496,48h32v16h-32zM800,48h32v16h-32zM896,48h48v16h-48zM0,64h32v16h-32zM48,64h16v16h-16zM80,64h32v16h-32zM144,64h32v16h-32zM224,64h32v16h-32zM320,64h48v16h-48zM464,64h48v16h-48zM720,64h112v16h-112zM896,64h48v16h-48zM0,80h32v16h-32zM64,80h32v16h-32zM144,80h32v16h-32zM224,80h32v16h-32zM320,80h48v16h-48zM448,80h32v16h-32zM720,80h32v16h-32zM800,80h32v16h-32zM896,80h48v16h-48zM0,96h80v16h-80zM96,96h16v16h-16zM144,96h112v16h-112zM304,96h80v16h-80zM432,96h112v16h-112zM608,96h48v16h-48zM720,96h112v16h-112zM880,96h80v16h-80z"/>
</svg>