<svg xmlns="http://www.w3.org/2000/svg" width="768" height="112" viewBox="0 0 768 112">
  <path fill="#ff1a1a" d="M0,0h16v16h-16zM752,0h16v16h-16zM0,16h16v16h-16zM752,16h16v16h-16zM0,32h16v16h-16zM752,32h16v16h-16zM0,48h16v16h-16zM752,48h16v16h-16zM0,64h16v16h-16zM752,64h16v16h-16zM0,80h16v16h-16zM752,80h16v16h-16zM0,96h16v16h-16zM752,96h16v16h-16z"/>
  <path fill="#ff371a" d="M16,0h16v16h-16zM16,16h16v16h-16zM16,32h16v16h-16zM16,48h16v16h-16zM16,64h16v16h-16zM16,80h16v16h-16zM16,96h16v16h-16z"/>
  <path fill="#ff541a" d="M32,0h16v16h-16zM32,48h16v16h-16zM32,64h16v16h-16z"/>
  <path fill="#ff711a" d="M48,0h16v16h-16zM48,48h16v16h-16zM48,64h16v16h-16zM48,80h16v16h-16z"/>
  <path fill="#ff8f1a" d="M64,0h16v16h-16zM64,16h16v16h-16zM64,32h16v16h-16zM64,48h16v16h-16zM64,80h16v16h-16zM64,96h16v16h-16z"/>
  <path fill="#faff1a" d="M128,0h16v16h-16zM128,16h16v16h-16zM128,32h16v16h-16zM128,48h16v16h-16zM128,64h16v16h-16zM128,80h16v16h-16zM128,96h16v16h-16z"/>
  <path fill="#ddff1a" d="M144,0h16v16h-16zM144,48h16v16h-16z"/>
  <path fill="#c0ff1a" d="M160,0h16v16h-16zM160,48h16v16h-16z"/>
  <path fill="#a2ff1a" d="M176,0h16v16h-16zM176,16h16v16h-16zM176,32h16v16h-16zM176,48h16v16h-16zM176,64h16v16h-16zM176,80h16v16h-16zM176,96h16v16h-16z"/>
  <path fill="#4aff1a" d="M224,0h16v16h-16zM224,96h16v16h-16z"/>
  <path fill="#2dff1a" d="M240,0h16v16h-16zM240,96h16v16h-16z"/>
  <path fill="#1aff23" d="M256,0h16v16h-16zM256,16h16v16h-16zM256,32h16v16h-16zM256,48h16v16h-16zM256,64h16v16h-16zM256,80h16v16h-16zM256,96h16v16h-16z"/>
  <path fill="#1aff41" d="M272,0h16v16h-16zM272,16h16v16h-16zM272,32h16v16h-16zM272,48h16v16h-16zM272,64h16v16h-16zM272,80h16v16h-16zM272,96h16v16h-16z"/>
  <path fill="#1aff5e" d="M288,0h16v16h-16zM288,96h16v16h-16z"/>
  <path fill="#1aff7b" d="M304,0h16v16h-16zM304,96h16v16h-16z"/>
  <path fill="#1affb6" d="M336,0h16v16h-16zM336,16h16v16h-16zM336,32h16v16h-16zM336,48h16v16h-16zM336,64h16v16h-16zM336,80h16v16h-16zM336,96h16v16h-16z"/>
  <path fill="#1affd3" d="M352,0h16v16h-16zM352,16h16v16h-16zM352,32h16v16h-16zM352,48h16v16h-16zM352,64h16v16h-16zM352,80h16v16h-16zM352,96h16v16h-16z"/>
  <path fill="#1ad3ff" d="M400,0h16v16h-16zM400,16h16v16h-16zM400,32h16v16h-16zM400,48h16v16h-16zM400,64h16v16h-16zM400,80h16v16h-16zM400,96h16v16h-16z"/>
  <path fill="#1ab6ff" d="M416,0h16v16h-16zM416,16h16v16h-16zM416,32h16v16h-16zM416,48h16v16h-16zM416,64h16v16h-16zM416,80h16v16h-16zM416,96h16v16h-16z"/>
  <path fill="#1a7bff" d="M448,0h16v16h-16zM448,16h16v16h-16zM448,32h16v16h-16zM448,48h16v16h-16zM448,64h16v16h-16zM448,80h16v16h-16zM448,96h16v16h-16z"/>
  <path fill="#1a5eff" d="M464,0h16v16h-16zM464,16h16v16h-16zM464,32h16v16h-16zM464,48h16v16h-16zM464,64h16v16h-16zM464,80h16v16h-16zM464,96h16v16h-16z"/>
  <path fill="#1a41ff" d="M480,0h16v16h-16zM480,48h16v16h-16zM480,96h16v16h-16z"/>
  <path fill="#1a23ff" d="M496,0h16v16h-16zM496,48h16v16h-16zM496,96h16v16h-16z"/>
  <path fill="#2d1aff" d="M512,0h16v16h-16zM512,16h16v16h-16zM512,32h16v16h-16zM512,48h16v16h-16zM512,64h16v16h-16zM512,80h16v16h-16zM512,96h16v16h-16z"/>
  <path fill="#a21aff" d="M576,0h16v16h-16zM576,16h16v16h-16zM576,32h16v16h-16zM576,48h16v16h-16zM576,64h16v16h-16zM576,80h16v16h-16zM576,96h16v16h-16z"/>
  <path fill="#c01aff" d="M592,0h16v16h-16zM592,96h16v16h-16z"/>
  <path fill="#dd1aff" d="M608,0h16v16h-16zM608,96h16v16h-16z"/>
  <path fill="#fa1aff" d="M624,0h16v16h-16zM624,16h16v16h-16zM624,32h16v16h-16zM624,48h16v16h-16zM624,64h16v16h-16zM624,80h16v16h-16zM624,96h16v16h-16z"/>
  <path fill="#ff1aac" d="M672,0h16v16h-16zM672,16h16v16h-16zM672,32h16v16h-16zM672,48h16v16h-16zM672,64h16v16h-16zM672,80h16v16h-16zM672,96h16v16h-16z"/>
  <path fill="#ff1a8f" d="M688,0h16v16h-16zM688,16h16v16h-16zM688,32h16v16h-16zM688,48h16v16h-16zM688,64h16v16h-16zM688,80h16v16h-16zM688,96h16v16h-16z"/>
  <path fill="#ff1a37" d="M736,0h16v16h-16zM736,16h16v16h-16zM736,32h16v16h-16zM736,48h16v16h-16zM736,64h16v16h-16zM736,80h16v16h-16zM736,96h16v16h-16z"/>
  <path fill="#ffac1a" d="M80,16h16v16h-16zM80,32h16v16h-16zM80,96h16v16h-16z"/>
  <path fill="#ffe71a" d="M112,16h16v16h-16zM112,32h16v16h-16zM112,48h16v16h-16zM112,64h16v16h-16zM112,80h16v16h-16zM112,96h16v16h-16z"/>
  <path fill="#85ff1a" d="M192,16h16v16h-16zM192,32h16v16h-16zM192,48h16v16h-16zM192,64h16v16h-16zM192,80h16v16h-16zM192,96h16v16h-16z"/>
  <path fill="#1afff0" d="M368,16h16v16h-16zM368,32h16v16h-16z"/>
  <path fill="#4a1aff" d="M528,16h16v16h-16zM528,32h16v16h-16zM528,64h16v16h-16zM528,80h16v16h-16z"/>
  <path fill="#851aff" d="M560,16h16v16h-16zM560,32h16v16h-16zM560,48h16v16h-16zM560,64h16v16h-16zM560,80h16v16h-16z"/>
  <path fill="#ff1ae7" d="M640,16h16v16h-16zM640,32h16v16h-16zM640,48h16v16h-16zM640,64h16v16h-16zM640,80h16v16h-16z"/>
  <path fill="#1af0ff" d="M384,32h16v16h-16zM384,48h16v16h-16z"/>
  <path fill="#ff1a71" d="M704,48h16v16h-16zM704,64h16v16h-16zM704,80h16v16h-16z"/>
  <path fill="#ff1a54" d="M720,48h16v16h-16zM720,64h16v16h-16zM720,80h16v16h-16z"/>
</svg>