<svg xmlns="http://www.w3.org/2000/svg" width="704" height="160" viewBox="0 0 704 160">
  <path fill="#1e1e1e" opacity="0.5" d="M32,16h48v16h-48zM176,16h96v16h-96zM304,16h16v16h-16zM368,16h48v16h-48zM464,16h48v16h-48zM608,16h48v16h-48zM688,16h16v16h-16zM32,32h16v16h-16zM112,32h16v16h-16zM176,32h16v16h-16zM368,32h16v16h-16zM464,32h16v16h-16zM544,32h16v16h-16zM608,32h16v16h-16zM688,32h16v16h-16zM96,48h32v16h-32zM368,48h16v16h-16zM528,48h32v16h-32zM608,48h16v16h-16zM688,48h16v16h-16zM32,64h16v16h-16zM80,64h32v16h-32zM176,64h64v16h-64zM368,64h16v16h-16zM464,64h16v16h-16zM512,64h32v16h-32zM608,64h16v16h-16zM688,64h16v16h-16zM32,80h16v16h-16zM176,80h16v16h-16zM368,80h16v16h-16zM464,80h16v16h-16zM608,80h16v16h-16zM688,80h16v16h-16zM32,96h16v16h-16zM368,96h16v16h-16zM464,96h16v16h-16zM688,96h16v16h-16zM16,112h32v16h-32zM96,112h32v16h-32zM160,112h112v16h-112zM336,112h48v16h-48zM448,112h32v16h-32zM528,112h32v16h-32zM592,112h112v16h-112z"/>
  <path fill="#ff6450" d="M0,0h96v16h-96zM144,0h112v16h-112zM288,0h112v16h-112zM432,0h96v16h-96zM576,0h112v16h-112zM0,16h32v16h-32zM80,16h32v16h-32zM144,16h32v16h-32zM320,16h48v16h-48zM432,16h32v16h-32zM512,16h32v16h-32zM576,16h32v16h-32zM656,16h32v16h-32zM0,32h32v16h-32zM80,32h32v16h-32zM144,32h32v16h-32zM320,32h48v16h-48zM432,32h32v16h-32zM512,32h32v16h-32zM576,32h32v16h-32zM656,32h32v16h-32zM0,48h96v16h-96zM144,48h80v16h-80zM320,48h48v16h-48zM432,48h96v16h-96zM576,48h32v16h-32zM656,48h32v16h-32zM0,64h32v16h-32zM48,64h32v16h-32zM144,64h32v16h-32zM320,64h48v16h-48zM432,64h32v16h-32zM480,64h32v16h-32zM576,64h32v16h-32zM656,64h32v16h-32zM0,80h32v16h-32zM64,80h32v16h-32zM144,80h32v16h-32zM320,80h48v16h-48zM432,80h32v16h-32zM496,80h32v16h-32zM576,80h32v16h-32zM656,80h32v16h-32zM0,96h32v16h-32zM80,96h32v16h-32zM144,96h112v16h-112zM320,96h48v16h-48zM432,96h32v16h-32zM512,96h32v16h-32zM576,96h112v16h-112z"/>
</svg>