<svg xmlns="http://www.w3.org/2000/svg" width="368" height="112" viewBox="0 0 368 112">
  <path fill="#ff69b4" d="M16,0h48v16h-48zM96,0h16v16h-16zM208,0h48v16h-48zM288,0h16v16h-16zM352,0h16v16h-16zM0,16h16v16h-16zM96,16h16v16h-16zM224,16h16v16h-16zM288,16h32v16h-32zM336,16h32v16h-32zM0,32h16v16h-16zM96,32h16v16h-16zM224,32h16v16h-16zM288,32h16v16h-16zM320,32h16v16h-16zM352,32h16v16h-16zM16,48h48v16h-48zM96,48h16v16h-16zM224,48h16v16h-16zM288,48h16v16h-16zM352,48h16v16h-16zM64,64h16v16h-16zM96,64h16v16h-16zM224,64h16v16h-16zM288,64h16v16h-16zM352,64h16v16h-16zM64,80h16v16h-16zM96,80h16v16h-16zM224,80h16v16h-16zM288,80h16v16h-16zM352,80h16v16h-16zM16,96h48v16h-48zM96,96h80v16h-80zM208,96h48v16h-48zM288,96h16v16h-16zM352,96h16v16h-16z"/>
</svg>