<svg xmlns="http://www.w3.org/2000/svg" width="656" height="112" viewBox="0 0 656 112">
  <path fill="#ff8a09" d="M16,0h16v16h-16zM16,16h16v16h-16zM16,32h16v16h-16zM16,48h16v16h-16zM16,96h16v16h-16z"/>
  <path fill="#ff8912" d="M32,0h16v16h-16zM32,48h16v16h-16zM32,96h16v16h-16z"/>
  <path fill="#ff871b" d="M48,0h16v16h-16zM48,48h16v16h-16zM48,96h16v16h-16z"/>
  <path fill="#ff8524" d="M64,0h16v16h-16zM64,48h16v16h-16zM64,64h16v16h-16zM64,80h16v16h-16zM64,96h16v16h-16z"/>
  <path fill="#ff832d" d="M80,0h16v16h-16zM80,64h16v16h-16zM80,80h16v16h-16z"/>
  <path fill="#ff803f" d="M112,0h16v16h-16zM112,16h16v16h-16zM112,32h16v16h-16zM112,48h16v16h-16zM112,64h16v16h-16zM112,80h16v16h-16z"/>
  <path fill="#ff7e48" d="M128,0h16v16h-16zM128,16h16v16h-16zM128,32h16v16h-16zM128,48h16v16h-16zM128,64h16v16h-16zM128,80h16v16h-16zM128,96h16v16h-16z"/>
  <path fill="#ff7963" d="M176,0h16v16h-16zM176,16h16v16h-16zM176,32h16v16h-16zM176,48h16v16h-16zM176,64h16v16h-16zM176,80h16v16h-16zM176,96h16v16h-16z"/>
  <path fill="#ff776c" d="M192,0h16v16h-16zM192,16h16v16h-16zM192,32h16v16h-16zM192,48h16v16h-16zM192,64h16v16h-16zM192,80h16v16h-16z"/>
  <path fill="#ff747e" d="M224,0h16v16h-16zM224,16h16v16h-16zM224,32h16v16h-16zM224,48h16v16h-16zM224,64h16v16h-16zM224,80h16v16h-16zM224,96h16v16h-16z"/>
  <path fill="#ff7287" d="M240,0h16v16h-16zM240,16h16v16h-16zM240,32h16v16h-16zM240,48h16v16h-16zM240,64h16v16h-16zM240,80h16v16h-16zM240,96h16v16h-16z"/>
  <path fill="#ff6da2" d="M288,0h16v16h-16zM288,16h16v16h-16zM288,32h16v16h-16zM288,48h16v16h-16zM288,64h16v16h-16zM288,80h16v16h-16zM288,96h16v16h-16z"/>
  <path fill="#ff6bab" d="M304,0h16v16h-16zM304,16h16v16h-16zM304,32h16v16h-16zM304,48h16v16h-16zM304,64h16v16h-16zM304,80h16v16h-16zM304,96h16v16h-16z"/>
  <path fill="#f25ebc" d="M352,0h16v16h-16zM352,16h16v16h-16zM352,32h16v16h-16zM352,48h16v16h-16zM352,96h16v16h-16z"/>
  <path fill="#ec59bf" d="M368,0h16v16h-16zM368,48h16v16h-16zM368,96h16v16h-16z"/>
  <path fill="#e654c3" d="M384,0h16v16h-16zM384,48h16v16h-16zM384,96h16v16h-16z"/>
  <path fill="#df4fc7" d="M400,0h16v16h-16zM400,48h16v16h-16zM400,64h16v16h-16zM400,80h16v16h-16zM400,96h16v16h-16z"/>
  <path fill="#d94acb" d="M416,0h16v16h-16zM416,64h16v16h-16zM416,80h16v16h-16z"/>
  <path fill="#cc3fd2" d="M448,0h16v16h-16zM448,16h16v16h-16zM448,32h16v16h-16zM448,48h16v16h-16zM448,64h16v16h-16zM448,80h16v16h-16zM448,96h16v16h-16z"/>
  <path fill="#c63ad6" d="M464,0h16v16h-16zM464,16h16v16h-16zM464,32h16v16h-16zM464,48h16v16h-16zM464,64h16v16h-16zM464,80h16v16h-16zM464,96h16v16h-16z"/>
  <path fill="#c035da" d="M480,0h16v16h-16zM480,48h16v16h-16zM480,96h16v16h-16z"/>
  <path fill="#b92fdd" d="M496,0h16v16h-16zM496,48h16v16h-16zM496,96h16v16h-16z"/>
  <path fill="#b32ae1" d="M512,0h16v16h-16zM512,48h16v16h-16zM512,96h16v16h-16z"/>
  <path fill="#ac25e5" d="M528,0h16v16h-16zM528,96h16v16h-16z"/>
  <path fill="#a01aec" d="M560,0h16v16h-16z"/>
  <path fill="#9915f0" d="M576,0h16v16h-16z"/>
  <path fill="#9310f4" d="M592,0h16v16h-16zM592,16h16v16h-16zM592,32h16v16h-16zM592,48h16v16h-16zM592,64h16v16h-16zM592,80h16v16h-16zM592,96h16v16h-16z"/>
  <path fill="#8d0bf8" d="M608,0h16v16h-16zM608,16h16v16h-16zM608,32h16v16h-16zM608,48h16v16h-16zM608,64h16v16h-16zM608,80h16v16h-16zM608,96h16v16h-16z"/>
  <path fill="#8605fb" d="M624,0h16v16h-16z"/>
  <path fill="#8000ff" d="M640,0h16v16h-16z"/>
  <path fill="#ff8c00" d="M0,16h16v16h-16zM0,32h16v16h-16zM0,96h16v16h-16z"/>
  <path fill="#ff7090" d="M256,16h16v16h-16zM256,32h16v16h-16z"/>
  <path fill="#f964b8" d="M336,16h16v16h-16zM336,32h16v16h-16zM336,96h16v16h-16z"/>
  <path fill="#ff6e99" d="M272,32h16v16h-16zM272,48h16v16h-16z"/>
  <path fill="#ff7c51" d="M144,96h16v16h-16z"/>
  <path fill="#ff7b5a" d="M160,96h16v16h-16z"/>
</svg>