<svg xmlns="http://www.w3.org/2000/svg" width="1120" height="144" viewBox="0 0 1120 144">
  <path fill="#00dcdc" d="M32,0h32v16h-32zM608,0h32v16h-32zM32,16h32v16h-32zM608,16h32v16h-32zM0,32h112v16h-112zM144,32h112v16h-112zM288,32h32v16h-32zM336,32h64v16h-64zM432,32h48v16h-48zM496,32h32v16h-32zM576,32h112v16h-112zM720,32h32v16h-32zM800,32h32v16h-32zM864,32h96v16h-96zM1008,32h112v16h-112zM32,48h32v16h-32zM144,48h32v16h-32zM224,48h32v16h-32zM288,48h48v16h-48zM432,48h32v16h-32zM480,48h16v16h-16zM512,48h32v16h-32zM608,48h32v16h-32zM720,48h32v16h-32zM800,48h32v16h-32zM864,48h32v16h-32zM944,48h32v16h-32zM1008,48h32v16h-32zM1088,48h32v16h-32zM32,64h32v16h-32zM144,64h112v16h-112zM288,64h32v16h-32zM432,64h32v16h-32zM480,64h16v16h-16zM512,64h32v16h-32zM608,64h32v16h-32zM720,64h32v16h-32zM800,64h32v16h-32zM864,64h32v16h-32zM944,64h32v16h-32zM1008,64h112v16h-112zM32,80h32v16h-32zM144,80h32v16h-32zM288,80h32v16h-32zM432,80h32v16h-32zM512,80h32v16h-32zM608,80h32v16h-32zM720,80h112v16h-112zM864,80h32v16h-32zM944,80h32v16h-32zM1008,80h32v16h-32zM32,96h80v16h-80zM144,96h112v16h-112zM288,96h32v16h-32zM432,96h32v16h-32zM512,96h32v16h-32zM608,96h80v16h-80zM800,96h32v16h-32zM864,96h96v16h-96zM1008,96h112v16h-112zM800,112h32v16h-32zM864,112h32v16h-32zM720,128h112v16h-112zM864,128h32v16h-32z"/>
</svg>