<svg xmlns="http://www.w3.org/2000/svg" width="880" height="144" viewBox="0 0 880 144">
  <path fill="#00dcdc" d="M288,0h48v16h-48zM800,0h48v16h-48zM16,32h96v16h-96zM128,32h32v16h-32zM208,32h32v16h-32zM272,32h64v16h-64zM384,32h112v16h-112zM640,32h112v16h-112zM784,32h64v16h-64zM0,48h32v16h-32zM80,48h32v16h-32zM128,48h32v16h-32zM208,48h32v16h-32zM288,48h48v16h-48zM448,48h32v16h-32zM720,48h32v16h-32zM800,48h48v16h-48zM0,64h32v16h-32zM80,64h32v16h-32zM128,64h32v16h-32zM208,64h32v16h-32zM288,64h48v16h-48zM416,64h48v16h-48zM640,64h112v16h-112zM800,64h48v16h-48zM0,80h32v16h-32zM80,80h32v16h-32zM128,80h32v16h-32zM208,80h32v16h-32zM288,80h48v16h-48zM400,80h32v16h-32zM640,80h32v16h-32zM720,80h32v16h-32zM800,80h48v16h-48zM16,96h96v16h-96zM128,96h112v16h-112zM272,96h80v16h-80zM384,96h112v16h-112zM544,96h48v16h-48zM640,96h112v16h-112zM784,96h80v16h-80zM80,112h32v16h-32zM80,128h32v16h-32z"/>
</svg>